<svg version="1.1" id="Layer_1" xmlns="http://www.w3.org/2000/svg" x="0" y="0" viewBox="0 0 100 100" xml:space="preserve"><style type="text/css">.st0{fill:#fff}</style><path d="M27.8 69.5H22c-.2 0-.2-.1-.3-.2l-1.5-3.9c-.1-.1-.1-.2-.3-.2h-9.1c-.2 0-.2.1-.3.2L9 69.3c0 .1-.1.2-.2.2H2.9c.2-.4.4-.9.6-1.3 1.1-2.6 2.3-5.2 3.4-7.8 1.4-3.3 2.9-6.5 4.3-9.8.2-.5.5-1.1.7-1.6.1-.1.1-.2.2-.2h6.4c.1 0 .2 0 .3.2 1.7 3.8 3.4 7.6 5 11.5 1.3 2.9 2.6 5.9 3.9 8.8 0 0 0 .1.1.2zm-9.3-8.1c-1.1-2.7-2.1-5.4-3.2-8.1-1.1 2.7-2.1 5.4-3.2 8.1h6.4zm29 8c.1-.3.2-.6.4-.8 2.5-5.8 5.1-11.5 7.6-17.3.3-.8.7-1.6 1-2.4.1-.1.1-.2.3-.2h6.4c.2 0 .2.1.3.2 1.1 2.6 2.3 5.1 3.4 7.7 1.8 4.2 3.7 8.4 5.5 12.6 0 .1 0 .1.1.2h-5.9c-.1 0-.2 0-.3-.2l-1.5-3.9c0-.1-.1-.2-.2-.2h-9.1c-.2 0-.2.1-.3.2l-1.5 3.9c0 .1-.1.2-.2.2h-5.7c-.1.1-.2 0-.3 0zm15.7-8c-1.1-2.7-2.1-5.4-3.2-8.1-1.1 2.7-2.2 5.4-3.2 8.1h6.4zm-35.5-9V37.2c0-1.1.1-2.3.4-3.4.6-1.8 1.8-2.9 3.5-3.5 1.1-.4 2.3-.5 3.5-.5h3.4c1.5 0 2.9.1 4.4.5 1.4.4 2.6 1 3.5 2.2.6.7.9 1.6 1.1 2.5.2 1 .2 2.1.2 3.1h-5.6v-1.4c0-.4-.1-.9-.2-1.3-.4-1.2-1.4-1.9-2.7-1.9H36c-.7 0-1.4.1-2 .5-.8.5-1.2 1.3-1.4 2.1-.1.5-.1 1-.1 1.4v14.8c1-1 1.9-2 2.9-2.9.9.9 1.7 1.8 2.6 2.6l-7.9 7.9-7.9-7.9 2.6-2.6c.9 1.1 1.9 2.1 2.9 3z"/><path d="M39.7 50.5l-2.6-2.6L45 40l7.9 7.9-2.6 2.6c-.9-1-1.9-1.9-2.9-2.9v15c0 1-.1 2.1-.3 3.1-.5 2.2-2 3.6-4.2 4.2-1.1.3-2.2.4-3.4.4h-4.4c-1.5-.1-3.1-.3-4.5-1-1.8-.9-2.9-2.3-3.3-4.3-.2-1-.2-2-.2-3v-.1h5.6v2c.1 1.5 1.3 2.6 2.8 2.6h3.4c.7 0 1.4-.2 2-.6.7-.5 1.1-1.2 1.2-2 .1-.5.2-.9.2-1.4v-15c-.6 1.1-1.6 2.1-2.6 3zm45.4 4.7c.3-.4.5-.7.8-1.1 1.2-1.7 2.4-3.4 3.6-5.2.1-.1.1-.2.3-.2h6.5c-2.7 3.3-5.3 6.7-8 10 2.9 3.5 5.8 7.1 8.7 10.6h-6.7c-.2 0-.3-.1-.3-.2l-4.8-6.6c0-.1-.1-.1-.1-.2-.2.3-.5.6-.7 1-1.4 2-2.8 3.9-4.3 5.9 0 .1-.1.1-.2.1H73c.2-.3.5-.6.7-.9 2.2-2.6 4.3-5.2 6.5-7.9.5-.6.9-1.1 1.4-1.7.1-.1.1-.2 0-.3-1.4-1.7-2.8-3.5-4.2-5.2l-3.6-4.5s-.1-.1-.1-.2h6.4c.2 0 .3.1.5.2 1.4 1.9 2.7 3.8 4.1 5.8.2.3.3.5.4.6z"/><path class="white" d="M18.5 61.4h-6.4c1.1-2.7 2.1-5.4 3.2-8.1 1.1 2.7 2.2 5.4 3.2 8.1zm44.7 0h-6.4c1.1-2.7 2.1-5.4 3.2-8.1 1.1 2.7 2.1 5.4 3.2 8.1z"/></svg>