<svg version="1.1" id="Layer_1" xmlns="http://www.w3.org/2000/svg" x="0" y="0" viewBox="0 0 100 100" xml:space="preserve"><style type="text/css">.st0{fill:#b63031}.st1{fill:#e23337}.st2{fill:#fff}</style><path class="st0" d="M30.4 56.2V44.5h1.5l7.2 9.4v-9.4h1.4v11.7H39l-7.2-9.5v9.5h-1.4zm21.8-.4c-.9.4-2 .5-3.1.5-4.2 0-6.4-2-6.4-6.1 0-3.9 2-5.8 6.1-5.8 1.2 0 2.3.2 3.3.5v1.3c-1-.4-2-.6-3.1-.6-3.2 0-4.8 1.5-4.8 4.5 0 3.3 1.6 4.9 4.7 4.9.5 0 1.1-.1 1.7-.2v-3.9h1.5v4.9h.1zm2.4-4.1v-7.2h1.5v7.2c0 2.3 1.1 3.4 3.4 3.4 2.2 0 3.4-1.1 3.4-3.4v-7.2h1.5v7.2c0 3.1-1.6 4.6-4.9 4.6-3.3 0-4.9-1.5-4.9-4.6zm13.9-7.2V55h6.1v1.2H67V44.5h1.5zm8.4 11.7h-1.6L81.1 43l5.8 13.3h-1.7l-1.5-3.7h-3.9l.4-1.2h3L81.1 46l-4.2 10.2zm11.7 0V44.5h5c2.2 0 3.4.9 3.4 2.8 0 1.5-1.1 2.7-3.3 3.4l4 5.5h-2L92 51v-1c2.2-.4 3.4-1.2 3.4-2.6 0-1.1-.6-1.6-1.9-1.6h-3.4v10.5h-1.5v-.1z"/><path class="st1" d="M2.3 41.4l12-4.3 12.3 4.2-2 15.9-10.3 5.7-10.1-5.6-1.9-15.9z"/><path class="st0" d="M26.7 41.3l-12.3-4.2v25.8l10.3-5.7 2-15.9z"/><path class="white" d="M14.4 40.1L6.9 56.8l2.8-.1 1.5-3.8h6.7l1.6 3.8 2.7.1-7.8-16.7zm0 5.4l2.5 5.3h-4.7l2.2-5.3z"/></svg>