<svg version="1.1" id="Layer_1" xmlns="http://www.w3.org/2000/svg" x="0" y="0" viewBox="0 0 100 100" xml:space="preserve"><style type="text/css">.st0{fill:#415361}</style><path class="st0" d="M19.1 44.7l-8.4-4.9c-.2-.1-.4-.1-.5 0l-8.4 4.9c-.2.1-.3.3-.3.5v9.7c0 .2.1.4.3.5l8.4 4.9c.2.1.4.1.5 0l8.4-4.9c.2-.1.3-.3.3-.5v-9.7c0-.3-.1-.4-.3-.5zm-9.3-1.8c0 .1-.1.1 0 0l-3.1 1.8c-.1 0-.1.1 0 .2l3 1.7V48c0 .1-.1.1-.1.1l-5.5-3.2c-.1 0-.1-.1 0-.2l5.5-3.2c.1 0 .1 0 .1.1l.1 1.3zm6.9 2l-5.5 3.2c-.1 0-.1 0-.1-.1v-1.4l3-1.7c.1 0 .1-.1 0-.2l-3-1.7v-1.4c0-.1.1-.1.1-.1l5.5 3.2v.2zm20.6 8.3v.1c-.2.3-.5.5-.7.8-.3.3-.6.5-1 .7-.4.2-.8.3-1.2.5-.4.1-.9.2-1.4.2-.8 0-1.5-.1-2.1-.4-.6-.3-1.2-.6-1.7-1.1-.5-.5-.8-1-1.1-1.7-.3-.7-.4-1.4-.4-2.1 0-.8.1-1.5.4-2.1.3-.7.6-1.2 1.1-1.7.5-.5 1-.9 1.7-1.2.7-.3 1.4-.4 2.2-.4 1 0 1.8.2 2.5.5s1.3.8 1.7 1.4v.1l-1.5 1.4h-.1c-.3-.4-.6-.7-1-1-.4-.3-.9-.4-1.5-.4-.5 0-.9.1-1.2.3-.4.2-.7.4-.9.7-.3.3-.5.6-.6 1-.1.4-.2.8-.2 1.3s.1.9.2 1.3.3.7.6 1c.3.3.6.5.9.7.4.2.8.2 1.2.2.4 0 .7 0 1-.1.3-.1.5-.2.7-.3.2-.1.4-.3.6-.4l.4-.4h.1l1.3 1.1zm1.2-8.2c0-.1 0-.1 0 0l3.8-.1c.6 0 1.1.1 1.6.3.5.2.8.4 1.1.7.3.3.5.6.7 1 .1.4.2.8.2 1.2 0 .7-.1 1.2-.4 1.7-.3.5-.7.9-1.2 1.1 0 0-.1.1 0 .1l2.2 3.9c0 .1 0 .1-.1.1H44s-.1 0-.1-.1L42 51.4s0-.1-.1-.1h-1.1c-.1 0-.1 0-.1.1V55c0 .1 0 .1-.1.1h-2.1c-.1 0-.1 0-.1-.1l.1-10zm3.6 4.5c.4 0 .8-.1 1-.4.2-.3.4-.6.4-1s-.1-.8-.4-1c-.2-.2-.6-.4-1-.4h-1.3c-.1 0-.1 0-.1.1v2.5c0 .1 0 .1.1.1 0 .1 1.3.1 1.3.1zm5.7-4.6h6.8c.1 0 .1 0 .1.1v1.8c0 .1 0 .1-.1.1h-4.5c-.1 0-.1 0-.1.1v1.8c0 .1 0 .1.1.1h3.5c.1 0 .1 0 .1.1v1.8c0 .1 0 .1-.1.1h-3.5c-.1 0-.1 0-.1.1v2c0 .1 0 .1.1.1H55c.1 0 .1 0 .1.1V55c0 .1 0 .1-.1.1h-7.2c-.1 0-.1 0-.1-.1l.1-10.1c-.1 0 0 0 0 0zm11.8 0H62s.1 0 .1.1l3.7 10c0 .1 0 .1-.1.1h-2.3s-.1 0-.1-.1l-.7-2.2s0-.1-.1-.1H59s-.1 0-.1.1l-.7 2.2s0 .1-.1.1h-2.2c-.1 0-.1-.1-.1-.1l3.8-10.1c-.1 0-.1 0 0 0zm2.3 6l-1.1-3.5c0-.1-.1-.1-.2 0l-1.1 3.5c0 .1 0 .1.1.1h2.3v-.1zm6.1-4h-3.1c-.1 0-.1 0-.1-.1V45c0-.1 0-.1.1-.1h8.8c.1 0 .1 0 .1.1v1.9c0 .1 0 .1-.1.1h-3.1c-.1 0-.1 0-.1.1v8c0 .1 0 .1-.1.1h-2.2c-.1 0-.1 0-.1-.1l-.1-8.2c.1.1 0 0 0 0zm7.1-2H82c.1 0 .1 0 .1.1v1.8c0 .1 0 .1-.1.1h-4.5c-.1 0-.1 0-.1.1v1.8c0 .1 0 .1.1.1H81c.1 0 .1 0 .1.1v1.8c0 .1 0 .1-.1.1h-3.5c-.1 0-.1 0-.1.1v2c0 .1 0 .1.1.1h4.8c.1 0 .1 0 .1.1V55c0 .1 0 .1-.1.1h-7.2c-.1 0-.1 0-.1-.1l.1-10.1c-.1 0 0 0 0 0zm9.5 8.2h.1c.3.3.6.5.8.7.3.2.7.2 1.1.2.2 0 .5 0 .7-.1.2-.1.4-.2.6-.4.2-.2.3-.4.4-.6.1-.3.1-.6.1-.9v-7c0-.1 0-.1.1-.1h1.3c.1 0 .1 0 .1.1v7.2c0 .6-.1 1.1-.3 1.5-.2.4-.4.8-.7 1-.3.3-.6.5-1 .6-.4.1-.8.2-1.2.2-.8 0-1.4-.1-1.9-.4-.5-.3-.8-.6-1.1-.9v-.1l.9-1zm7.5-.4h.1l.4.4c.2.2.4.3.6.5.2.1.5.2.8.3.3.1.6.1.9.1.7 0 1.2-.2 1.6-.5.4-.3.6-.7.6-1.2 0-.6-.2-1-.6-1.3-.4-.3-1.1-.5-1.9-.7-.4-.1-.8-.2-1.2-.4-.4-.2-.7-.4-.9-.6s-.5-.5-.6-.9-.2-.7-.2-1.1c0-.4.1-.7.2-1.1s.4-.6.6-.9c.3-.3.6-.5 1.1-.6.4-.2.9-.2 1.5-.2.5 0 .9.1 1.3.2s.7.2.9.4c.3.2.5.3.6.5l.3.3v.1l-.9.8h-.1l-.2-.2c-.1-.1-.3-.2-.5-.3-.2-.1-.4-.2-.7-.3-.3-.1-.5-.1-.9-.1-.3 0-.6 0-.8.1l-.6.3c-.2.1-.3.3-.3.5-.1.2-.1.3-.1.5 0 .3.1.5.2.7.1.2.3.3.5.5.2.1.5.3.8.4.3.1.6.2 1 .3.4.1.8.2 1.1.4.4.1.7.3 1 .6.3.3.5.6.7.9.2.4.3.8.3 1.3 0 .4-.1.8-.3 1.2-.2.4-.4.7-.8 1-.3.3-.7.5-1.1.6-.4.1-.9.2-1.4.2-.5 0-.9-.1-1.3-.2s-.8-.3-1.1-.4c-.3-.2-.6-.4-.8-.6-.2-.2-.4-.4-.5-.6v-.1l.7-.8z"/></svg>