<svg version="1.1" id="svg3476" xmlns="http://www.w3.org/2000/svg" x="0" y="0" viewBox="0 0 100 100.1" xml:space="preserve"><style type="text/css">.st0{fill:#264de4}.st1{fill:#2965f1}.white{fill:#fff}</style><g id="layer1" transform="translate(-193.633 -276.362)"><g id="g3013" transform="translate(119 276.362)"><path id="polygon2989" class="st0" d="M160.1 19.7L153.6 92l-29 8.1L95.7 92l-6.5-72.3z"/><path id="polygon2991" class="st1" d="M148.1 87.4l5.5-61.8h-28.9v68.3z"/><path id="polygon2993" class="white" d="M104 52.4l.8 8.9h19.9v-8.9z"/><path id="polygon2995" class="white" d="M124.7 34.5h-22.3l.8 8.8h21.5z"/><path id="polygon2997" class="white" d="M124.7 84.7v-9.2h-.1l-9.9-2.7-.6-7.1h-8.9l1.2 14 18.2 5z"/><path id="path2999" d="M105.9 0h10.7v4.5h-6.3V9h6.3v4.5h-10.7V0z"/><path id="path3001" d="M118.8 0h10.7v3.9h-6.3v.8h6.3v9h-10.7V9.6h6.3v-.8h-6.3V0z"/><path id="path3003" d="M131.7 0h10.7v3.9h-6.3v.8h6.3v9h-10.7V9.6h6.3v-.8h-6.3V0z"/><path id="polygon3005" class="white" d="M135.6 61.3l-1.1 11.5-9.9 2.7v9.2l18.2-5 .2-1.5 2-23.4.3-2.4 1.6-17.9h-22.3v8.8h12.5l-.8 9.1h-11.7v8.9z"/></g></g></svg>