<svg version="1.1" id="Layer_1" xmlns="http://www.w3.org/2000/svg" x="0" y="0" viewBox="0 0 100 100" xml:space="preserve"><style type="text/css">.st0{fill:#010101}.st1{fill:#e44f26}.st2{fill:#f1672a}.st3{fill:#ebebeb}.st4{fill:#fff}</style><path class="st0" d="M22.3 2h4.3v4.3h4V2h4.3v13h-4.3v-4.3h-3.9V15h-4.3m18.2-8.7h-3.8V2h11.9v4.3h-3.8V15h-4.3M50.7 2h4.5L58 6.6 60.7 2h4.5v13h-4.3V8.5l-3 4.6-3-4.6V15h-4.2M67.4 2h4.3v8.7h6.1V15H67.4"/><path class="st1" d="M22.2 90.3L16 20.9h68l-6.2 69.4L49.9 98"/><path class="st2" d="M50 92.1V26.6h27.8l-5.3 59.2"/><path class="white" d="M28.6 35.1H50v8.5H38l.8 8.7H50v8.5H31m.3 4.3h8.5l.6 6.8 9.5 2.5v8.9l-17.5-4.9m38.9-43.3H50v8.5h20.5m-.8 8.7H50v8.5h10.5l-1 11.1-9.5 2.5v8.8l17.4-4.8"/></svg>