<svg version="1.1" id="Layer_1" xmlns="http://www.w3.org/2000/svg" x="0" y="0" viewBox="0 0 100 100" xml:space="preserve"><style type="text/css">.st0{fill:#63a814}.st1{fill:#8acf17}.st2{fill:#fff}.st3{fill:#ebebeb}</style><path class="st0" d="M21 91.9l-6.4-72.4h70.9L79 91.9 50 100l-29-8.1z"/><path class="st1" d="M50 93.8l23.4-6.5L79 25.5H50v68.3z"/><path id="J_1_" class="white" d="M27.7 34.5l.8 8.8h33.9l-2.5 29.5-9.9 2.7-9.9-2.7-.6-7.1h-8.9l1.2 14 18.2 5 18.2-5.1 4-45.2H27.7z"/><path class="white" d="M50 75.5l-9.9-2.7-.6-7.1h-8.9l1.2 14 18.2 5v-9.2zM28.5 43.3H50v-8.8H27.7l.8 8.8z"/><path d="M43.6 0v8.6h-7.4v4.8h12.4V0h-5zM51 0v5l5.4 4H51v4.3h12.6V9l-6.1-4.7h6.1V0H51z"/></svg>