<svg version="1" id="Layer_1" xmlns="http://www.w3.org/2000/svg" x="0" y="0" viewBox="0 0 100 100" xml:space="preserve"><style type="text/css">.st0{fill:#64676b}.st1{fill:#64686c}</style><g id="layer1_1_" transform="translate(-283.506 -410.439)"><g id="flowRoot2998_1_" transform="translate(-384.028 -1510.84) scale(4.21911)"><path id="path3911_1_" class="st0" d="M172.6 468.3v-2.7h.3l.9 1.6.9-1.6h.3v2.7h-.3v-2l-.8 1.5h-.2l-.8-1.5v2h-.3z"/><path id="path3913_1_" class="st0" d="M176.2 468.4c-.2 0-.4-.1-.5-.2-.1-.1-.2-.3-.2-.4 0-.2.1-.4.2-.5.2-.1.3-.2.6-.2.2 0 .4 0 .5.1v-.1c0-.1 0-.2-.1-.3s-.2-.1-.3-.1c-.1 0-.2 0-.3.1-.1 0-.1.1-.2.2l-.3-.1c0-.1.1-.2.2-.3.1-.1.3-.1.5-.1s.4.1.6.2.2.3.2.6v1.1h-.3v-.3c-.1.2-.3.3-.6.3zm.1-.3c.1 0 .3-.1.4-.2s.2-.2.2-.4c-.1-.1-.2-.1-.4-.1s-.3 0-.4.1c-.1.1-.1.2-.1.3 0 .1 0 .2.1.2 0 0 .1.1.2.1z"/><path id="path3915_1_" class="st0" d="M178.5 468.4c-.1 0-.3 0-.4-.1s-.2-.1-.2-.2v1.1h-.3v-2.6h.3v.3c.1-.1.1-.2.2-.2.1-.1.2-.1.4-.1s.4.1.6.3.3.4.3.7c0 .3-.1.5-.3.7s-.3.1-.6.1zm0-.3c.2 0 .3-.1.4-.2.1-.1.2-.3.2-.5s-.1-.4-.2-.5c-.1-.1-.3-.2-.4-.2-.2 0-.3.1-.4.2s-.2.3-.2.5.1.4.2.5.2.2.4.2z"/><path id="path3917_1_" class="st0" d="M180.4 468.4c-.2 0-.4 0-.5-.1-.1-.1-.2-.2-.3-.4l.3-.1c.1.2.3.3.5.3.1 0 .2 0 .3-.1.1 0 .1-.1.1-.2s-.1-.2-.2-.2l-.4-.1c-.1 0-.2-.1-.3-.2-.1-.1-.2-.2-.2-.3 0-.2.1-.3.2-.4.1-.1.3-.2.5-.2s.3 0 .4.1l.3.3-.3.1c-.1-.2-.2-.2-.4-.2-.1 0-.2 0-.3.1-.1 0-.1.1-.1.2s.1.2.2.2l.4.1c.2 0 .3.1.4.2.1.1.1.2.1.3 0 .2-.1.3-.2.4-.1.1-.3.2-.5.2z"/></g><path id="path3064_1_" class="st1" d="M299.8 457.9h-6.1v1.8h4.3c-.2 2.5-2.3 3.6-4.3 3.6-2.6 0-4.8-2-4.8-4.8 0-2.7 2.1-4.9 4.8-4.9 2.1 0 3.3 1.3 3.3 1.3l1.3-1.3s-1.6-1.8-4.6-1.8c-3.8 0-6.7 3.2-6.7 6.6 0 3.4 2.8 6.7 6.8 6.7 3.6 0 6.2-2.4 6.2-6.1-.1-.6-.2-1.1-.2-1.1z"/><path id="path3066_1_" class="st1" d="M304.8 456.6c-2.5 0-4.3 2-4.3 4.2 0 2.3 1.7 4.3 4.3 4.3 2.3 0 4.3-1.8 4.3-4.3 0-2.7-2.2-4.2-4.3-4.2zm.1 1.7c1.2 0 2.4 1 2.4 2.6s-1.2 2.6-2.4 2.6c-1.4 0-2.4-1.1-2.4-2.6-.1-1.5 1-2.6 2.4-2.6z"/><path id="path3068_1_" class="st1" d="M314.2 456.6c-2.5 0-4.3 2-4.3 4.2 0 2.3 1.7 4.3 4.3 4.3 2.3 0 4.3-1.8 4.3-4.3 0-2.7-2.2-4.2-4.3-4.2zm0 1.7c1.2 0 2.4 1 2.4 2.6s-1.2 2.6-2.4 2.6c-1.4 0-2.4-1.1-2.4-2.6s1-2.6 2.4-2.6z"/><path id="path3070_1_" class="st1" d="M323.4 456.6c-2.3 0-4.1 2-4.1 4.3 0 2.6 2.1 4.3 4.1 4.3 1.2 0 1.9-.5 2.3-1v.8c0 1.5-.9 2.4-2.3 2.4-1.3 0-2-1-2.2-1.5l-1.6.7c.6 1.2 1.8 2.5 3.9 2.5 2.3 0 4-1.4 4-4.5v-7.7h-1.8v.7c-.5-.6-1.3-1-2.3-1zm.2 1.7c1.1 0 2.3 1 2.3 2.6 0 1.7-1.2 2.6-2.3 2.6-1.2 0-2.4-1-2.4-2.6s1.2-2.6 2.4-2.6z"/><path id="path3072_1_" class="st1" d="M335.5 456.6c-2.2 0-4 1.7-4 4.3 0 2.7 2 4.3 4.2 4.3 1.8 0 2.9-1 3.6-1.9l-1.5-1c-.4.6-1 1.2-2.1 1.2-1.2 0-1.8-.7-2.1-1.3l5.7-2.4-.3-.7c-.5-1.4-1.8-2.5-3.5-2.5zm.1 1.6c.8 0 1.3.4 1.6.9l-3.8 1.6c-.3-1.2.9-2.5 2.2-2.5z"/><path id="path3074_1_" class="st1" d="M328.8 464.9h1.9v-12.6h-1.9v12.6z"/></g></svg>