<svg version="1.1" id="Layer_1" xmlns="http://www.w3.org/2000/svg" x="0" y="0" viewBox="0 0 100 100" xml:space="preserve"><style type="text/css">.st0{fill:#010101}.st1{fill:#020202}</style><path class="st0" d="M36.2 40.8l-2.1.2v1c.1 2.6 1.5 3.1 2.7 3.1h.3l3.5-.3c.1-.4.1-.7.1-.7s-.4-22-.5-24.7c0-.6-.2-1.1-.4-1.5-1.3-.1-2.4-.2-3.3-.2h-.4c-.9 0-1.5.2-1.9.6-.6.7-.6 1.7-.6 1.7v1.7c1.7.1 2.9.2 2.9.2s1.9.4 2 2.4c.1 2.2.1 14.3.1 14.3s.4 1.8-2.4 2.2zm-6.7.5l-3.5.3s-2.9.4-3-2.8c-.1-2.3-.3-15.5-.3-15.5s-.2-2.4 2.8-2.2c.9.1 2.2.1 3.6.2 0-2.2-.1-4.1-.1-5.6-1.9-.1-3.7-.3-4.9-.4-3.9-.4-3.7 2.9-3.7 2.9s.5 24.3.6 27.2c.1 3.6 3.9 3 3.9 3l4.7-.5c0-1.8 0-4.1-.1-6.6zm42-30.1c-.2-4.6-4.2-5.5-4.2-5.5s-13.8-2-19.9-2.8S41.8 8 41.8 8s1.4 42.8 1.5 48.1c.2 6.3 6.1 5.3 6.1 5.3l20.8-3.6c3.8-.7 4-5.5 4-5.5s-2.5-36.1-2.7-41.1zm-4.7 36.4l-15.5 1.6s-4.5.7-4.6-4.8c-.1-4.1-1-27.2-1-27.2s-.3-4.2 4.3-3.9c4.7.4 16.1 1.2 16.1 1.2s3.1.7 3.2 4.2c.1 3.8 1.4 24.7 1.4 24.7s.4 3.5-3.9 4.2zm-15.6.8l6-.6c-.3-6.1-1.4-29.7-1.5-33.2v-.1c-2.2-.2-4.2-.3-5.7-.4h-.5c-1 0-1.7.3-2.2.8-.8.9-.7 2.2-.7 2.2v.4c2.4.2 4.3.4 4.3.4s2.6.6 2.7 3.4c.1 3.1.9 19.8.9 19.8s.3 2.8-3.4 3.4l-3.5.5c.2 2.9 1.9 3.5 3.3 3.5.2-.1.3-.1.3-.1zm-9.1-2.9l-4.8.5s-3.9.6-4-3.9c-.1-3.3-.4-22.1-.4-22.1s-.3-3.5 3.7-3.2c1.2.1 2.8.2 4.6.4-.1-3.6-.2-6.4-.2-7.9-2.3-.2-4.6-.5-6.2-.6-5.3-.6-4.9 4.1-4.9 4.1s.6 34.4.7 38.6c.1 5 5.3 4.2 5.3 4.2l6.5-.8c-.1-2.1-.1-5.4-.3-9.3z"/><path class="st1" d="M32.2 76.2l-1.4 3.9c0 .1 0 .1-.1.1H30c-.1 0-.1 0-.1-.1.9-2.6 2.6-7.1 3.7-9.9.1-.1.1-.1.1-.4 0-.1 0-.1.1-.1h.9c.1 0 .1 0 .1.1l3.8 10.4c0 .1 0 .1-.1.1h-.6s-.1 0-.1-.1l-1.5-3.9-4.1-.1zm4-.6c-.4-1-1.6-4.3-1.9-5.4-.2.9-1.1 3.2-1.9 5.4h3.8zm3.2.8c0-2.4 1.7-4 4-4 .5 0 1.1.1 1.6.2v-3.9c0-.1 0-.1.1-.1h.5c.1 0 .1 0 .1.1v10.8c0 .1 0 .1-.1.1-.8.5-1.7.7-2.6.7-2.1 0-3.6-1.4-3.6-3.9zm5.6-3c-.4-.2-1-.3-1.6-.3-2.2 0-3.3 1.5-3.3 3.3 0 2.4 1.5 3.3 3 3.3.7 0 1.3-.1 1.8-.4l.1-5.9zm9.2 3c0 2.4-1.4 3.9-3.4 3.9-2.5 0-3.5-2.1-3.5-3.9 0-2.3 1.4-3.9 3.5-3.9 2-.1 3.4 1.5 3.4 3.9zm-6.2-.1c0 1.8.9 3.4 2.8 3.4 1.3 0 2.7-.9 2.7-3.3 0-1.7-.8-3.4-2.8-3.4-1.6 0-2.7 1.4-2.7 3.3zm8.5-7.6l.1 4.3c.7-.4 1.5-.6 2.3-.6 2.1 0 3.3 1.5 3.3 3.6 0 2.7-2.1 4.3-4.1 4.3-.7 0-1.4-.1-2-.3-.1 0-.1-.1-.1-.1V68.8c0-.1 0-.1.1-.1h.4zm2.2 4.4c-.7 0-1.5.2-2.1.5v5.9c.4.1.9.2 1.5.2 1.7 0 3.4-1.2 3.4-3.6-.1-1.7-1.1-3-2.8-3zm5.3 3.1c-.1 2 1 3.4 2.9 3.4.6 0 1.3-.1 2-.5.1 0 .1 0 .1.1v.5c0 .1 0 .1-.1.1-.5.3-1.1.5-2.1.5-2.6 0-3.5-2-3.5-3.9 0-2.3 1.3-4 3.3-4 2.1 0 2.9 1.8 2.9 2.9 0 .5 0 .7-.1.8-.3.1-1 .1-1.7.1H64zm3.6-.5c1 0 1.1 0 1.2-.1v-.3c0-.6-.4-2.2-2.2-2.2-1.5 0-2.3 1.2-2.5 2.6h3.5zM19.1 83c0-.1 0-.1 0 0 .5-.1 1.4-.1 2.3-.1 2.7 0 3.8 1.4 3.8 3.3 0 2.5-1.9 3.5-4.1 3.5h-1.3v3.6c0 .1 0 .1-.1.1h-.6c-.1 0-.1 0-.1-.1V83h.1zm.7 6h1.3c1.6 0 3.4-.6 3.4-2.9 0-1.9-1.3-2.7-3.1-2.7h-1.6V89zm7.1-7c0-.1 0-.1 0 0l.6-.1c.1 0 .1 0 .1.1v4.7c.6-.6 1.5-1.1 2.6-1.1 1 0 2.5.5 2.5 3v4.6c0 .1 0 .1-.1.1H32c-.1 0-.1 0-.1-.1v-4.7c0-1.5-.7-2.3-1.9-2.3-1.1 0-1.9.5-2.4 1.1v5.9c0 .1 0 .1-.1.1H27c-.1 0-.1 0-.1-.1V82zm14.3 7.6c0 2.4-1.4 3.9-3.4 3.9-2.5 0-3.5-2.1-3.5-3.9 0-2.3 1.4-3.9 3.5-3.9 2-.1 3.4 1.5 3.4 3.9zm-6.2-.1c0 1.8.9 3.4 2.8 3.4 1.3 0 2.7-.9 2.7-3.3 0-1.7-.8-3.4-2.8-3.4-1.6 0-2.7 1.4-2.7 3.3zm7.8-1.9c0-.6-.1-1.5-.1-1.7 0-.1 0-.1.1-.1h.5c.1 0 .1 0 .1.1s.1.6.1.9c.8-.7 1.7-1.2 2.6-1.2.9 0 2.5.5 2.5 3v4.6c0 .1 0 .1-.1.1H48c-.1 0-.1 0-.1-.1v-4.6c0-1.4-.6-2.3-1.9-2.3-.9 0-1.8.5-2.4 1.2v5.8c0 .1 0 .1-.1.1h-.6c-.1 0-.1 0-.1-.1v-5.7zm8.1 1.8c-.1 2 1 3.4 2.9 3.4.6 0 1.3-.1 2-.5.1 0 .1 0 .1.1v.5c0 .1 0 .1-.1.1-.5.3-1.1.5-2.1.5-2.6 0-3.5-2-3.5-3.9 0-2.3 1.3-4 3.3-4 2.1 0 2.9 1.8 2.9 2.9 0 .5 0 .7-.1.8-.3.1-1 .1-1.7.1h-3.7zm3.6-.5c1 0 1.1 0 1.2-.1v-.3c0-.6-.4-2.2-2.2-2.2-1.5 0-2.3 1.2-2.5 2.6h3.5zm8 0c-.1 0-.1 0 0 0l-.1-.5c0-.1.1-.1.1-.1h3.2c.1 0 .1 0 .1.1v4.3c0 .1 0 .1-.1.1-.9.5-2 .7-3.1.7-3.5 0-5.1-2.5-5.1-5.4 0-3.3 2.1-5.5 5.2-5.5 1.2 0 2.2.3 2.7.6l.1.1v.7c0 .1 0 .1-.1.1-.7-.4-1.7-.7-2.7-.7-2.8 0-4.5 1.9-4.5 4.8 0 2.2 1.2 4.7 4.4 4.7 1.1 0 1.9-.2 2.4-.5v-3.5h-2.5zm7.6 4.6c-1.6 0-2.9-.8-2.9-2.4 0-1.9 1.6-2.6 4.7-2.5v-.4c0-.6-.2-1.9-1.9-1.9-.7 0-1.5.2-2.1.6-.1 0-.1 0-.1-.1v-.5c0-.1 0-.1.1-.1.6-.4 1.4-.6 2.2-.6 1.8 0 2.5 1.2 2.5 2.7v4.5c-.9.6-1.8.7-2.5.7zm1.9-4.3c-3.1-.1-4.1.6-4.1 1.9 0 .9.6 1.7 2.3 1.7.6 0 1.2-.1 1.7-.3v-3.3h.1zm8.9.1c0 2.9-2.3 4.2-4.3 4.2-.5 0-.9-.1-1.3-.1V97c0 .1 0 .1-.1.1l-.5.1c-.1 0-.1 0-.1-.1V86.3c.4-.1 1.5-.6 2.8-.6 2.1-.1 3.5 1.4 3.5 3.6zm-5.5-2.7v6.1c.3.1.7.2 1.3.2 1.9 0 3.5-1.4 3.5-3.6 0-1.7-1.1-3-2.8-3-.9 0-1.5.1-2 .3z"/></svg>