<svg version="1.1" id="Layer_1" xmlns="http://www.w3.org/2000/svg" x="0" y="0" viewBox="0 0 100 100" xml:space="preserve"><style type="text/css">.st0{fill:#288aca}</style><path class="st0" d="M74.7 43h-4.3l-1.7 10h4c3-.3 5.7-1.3 6-7 0-2-1.7-3-4-3z"/><path class="st0" d="M50 24.7C23.1 24.7 1.3 36 1.3 50S23.1 75.3 50 75.3C76.9 75.3 98.7 64 98.7 50S76.9 24.7 50 24.7zM28.7 58h-6l-1.3 7H15l5.3-27h12.3c5.3.3 8 3 8 7.7.1 8-6.3 12.6-11.9 12.3zm24 0L55 45.7c.3-1.7.3-2.7-2-2.7h-5l-3 15h-6.3L44 31h6.3L49 38h6c5.3.3 7.3 3 6.7 6.3L59.3 58h-6.6zm20.6 0h-6L66 65h-6.3L65 38h12.3c5.3.3 8 3 8 7.7 0 8-6.3 12.6-12 12.3z"/><path class="st0" d="M30 43h-4.3L24 53h4c3-.3 5.7-1.3 6-7 0-2-1.7-3-4-3z"/></svg>