<svg version="1.1" id="Layer_1" xmlns="http://www.w3.org/2000/svg" x="0" y="0" viewBox="0 0 100 100" xml:space="preserve"><style type="text/css">.st0{fill:#ce6899}</style><path class="st0" d="M83.7 55.2c-3.3 0-6.1.8-8.5 2-.9-1.7-1.7-3.3-1.9-4.4-.2-1.3-.4-2.1-.2-3.7s1.1-3.8 1.1-4-.2-1-2.1-1c-1.9 0-3.5.4-3.7.9-.2.5-.5 1.6-.8 2.8-.3 1.7-3.8 7.8-5.7 11-.6-1.2-1.2-2.3-1.3-3.2-.2-1.3-.4-2.1-.2-3.7s1.1-3.8 1.1-4c0-.2-.2-1-2.1-1-1.9 0-3.5.4-3.7.9-.2.5-.4 1.7-.8 2.8-.4 1.1-4.9 11.3-6.1 13.9-.6 1.3-1.1 2.4-1.5 3.2 0 0 0 .1-.1.1l-.5 1c-.3.5-.5.9-.7.9-.1 0-.3-1.2 0-2.9.7-3.5 2.3-9 2.3-9.2 0-.1.3-1.1-1.1-1.6-1.3-.5-1.8.3-1.9.3s-.2.3-.2.3 1.5-6.2-2.8-6.2c-2.7 0-6.4 2.9-8.3 5.6-1.2.6-3.6 2-6.3 3.4-1 .6-2 1.1-3 1.7-.1-.1-.1-.2-.2-.2-5.2-5.6-14.9-9.5-14.5-17 .2-2.7 1.1-9.9 18.5-18.6 14.4-7.1 25.8-5.1 27.8-.8 2.8 6.2-6.1 17.7-21 19.4-5.7.6-8.6-1.6-9.4-2.4-.8-.9-.9-.9-1.2-.7-.5.3-.2 1 0 1.5.4 1.2 2.3 3.2 5.4 4.2 2.7.9 9.4 1.4 17.4-1.7 9-3.5 16-13.1 13.9-21.2-2.1-8.2-15.7-10.9-28.6-6.3-7.7 2.7-16 7-22 12.6C4.1 36.5 3 42.3 3.4 44.7 5.1 53.3 16.9 58.9 21.7 63c-.2.1-.5.3-.6.4-2.4 1.2-11.4 5.9-13.7 10.9-2.6 5.6.4 9.7 2.3 10.2 6.1 1.7 12.3-1.3 15.7-6.4 3.4-5 2.9-11.5 1.4-14.5 0 0 0-.1-.1-.1.6-.4 1.2-.7 1.9-1.1 1.2-.7 2.4-1.4 3.4-1.9-.6 1.6-1 3.5-1.2 6.2-.3 3.2 1.1 7.4 2.8 9 .8.7 1.7.7 2.3.7 2 0 2.9-1.7 3.9-3.6 1.2-2.4 2.3-5.2 2.3-5.2s-1.4 7.6 2.4 7.6c1.4 0 2.7-1.8 3.4-2.7s0-.1.1-.2l.2-.4c.5-1 1.8-3.1 3.6-6.7 2.4-4.6 4.6-10.4 4.6-10.4s.2 1.4.9 3.8c.4 1.4 1.3 2.9 1.9 4.4-.5.8-.9 1.2-.9 1.2-.4.6-.9 1.2-1.4 1.8-1.9 2.2-4.1 4.8-4.4 5.5-.4.9-.3 1.5.4 2 .5.4 1.4.4 2.3.4 1.7-.1 2.8-.5 3.4-.8.9-.3 2-.8 2.9-1.6 1.8-1.3 2.9-3.3 2.8-5.8-.1-1.4-.5-2.8-1.1-4.1.2-.2.3-.5.5-.7 2.9-4.2 5.1-8.8 5.1-8.8s.2 1.4.9 3.8c.3 1.2 1 2.5 1.7 3.8-2.7 2.2-4.4 4.8-5 6.4-1.1 3.1-.2 4.5 1.3 4.8.7.2 1.7-.2 2.5-.5 1-.3 2.1-.8 3.2-1.6 1.8-1.3 3.6-3.2 3.5-5.8-.1-1.2-.4-2.3-.8-3.4 2.3-1 5.3-1.5 9.1-1 8.1 1 9.7 6 9.4 8.1-.3 2.1-2 3.3-2.6 3.6-.6.4-.8.5-.7.7.1.4.3.4.8.3.7-.1 4.3-1.7 4.4-5.6.4-5-4.4-10.5-12.8-10.5zM21.1 76.3c-2.7 2.9-6.4 4-8.1 3.1-1.7-1-1.1-5.3 2.3-8.4 2-1.9 4.6-3.6 6.3-4.7.4-.2 1-.6 1.7-1 .1-.1.2-.1.2-.1.1-.1.3-.2.4-.3 1.2 4.5 0 8.4-2.8 11.4zM40.7 63c-.9 2.3-2.9 8.1-4.1 7.8-1-.3-1.7-4.7-.2-9.1.7-2.2 2.3-4.8 3.2-5.8 1.5-1.6 3.1-2.2 3.5-1.5.5.8-1.8 7.2-2.4 8.6zm16.2 7.8c-.4.2-.8.3-.9.2-.1-.1.2-.3.2-.3s2-2.2 2.8-3.2c.5-.6 1-1.3 1.6-2v.2c-.1 2.6-2.6 4.3-3.7 5.1zm12.5-2.9c-.3-.2-.2-.9.7-3 .4-.8 1.3-2.2 2.8-3.6.2.5.3 1.1.3 1.6-.1 3.3-2.4 4.5-3.8 5z"/></svg>