<svg version="1.1" id="Layer_1" xmlns="http://www.w3.org/2000/svg" x="0" y="0" viewBox="0 0 100 100" xml:space="preserve"><path d="M70.6 58.5h-2.2c-.1 0-.3 0-.4-.1-.2-.1-.4-.3-.4-.5-.1-.2-.1-.4-.2-.7-.1 0-.1.1-.1.1-.4.3-.7.6-1.2.8-.8.4-1.6.6-2.5.5-.6 0-1.1-.2-1.6-.4-.9-.5-1.5-1.2-1.8-2.2-.2-.6-.3-1.3-.3-2v-5.1h-5.2v5.9c0 .2 0 .4.1.6.1.3.3.4.6.4.2 0 .4 0 .6-.2.1-.1.2-.1.4-.1.1 0 .2 0 .3.1 0 .1.1.1.1.2.3.5.7 1.1 1 1.6v.1l-.1.1c-.6.5-1.4.7-2.1.8-.5.1-1 .1-1.6.1-.7-.1-1.4-.3-2-.8-.5-.4-.8-1-.9-1.6-.1-.3-.1-.7-.1-1v-6.2h-1c-.4 0-.7-.3-.7-.7v-1.4c.3-.1.6-.1.8-.2.3-.1.6-.1.9-.2.1 0 .1-.1.2-.2.2-.7.3-1.4.5-2.2 0-.2.1-.4.1-.6.1-.4.3-.6.8-.6h1.9v3.6h8.8V54c0 .2 0 .5.1.7.2.7.7 1.1 1.4 1.1.4 0 .8-.1 1.2-.2l.9-.6c.1 0 .1-.1.1-.2v-8.4h3.6v12.1zm-53.7 0H14c-.4 0-.6-.1-.7-.5-.1-.3-.2-.5-.2-.8-.6-2-1.1-3.9-1.7-5.9-.1-.3-.1-.6-.2-.8 0 0 0-.1-.1-.1v.2c-.1.7-.4 1.4-.6 2-.5 1.7-1 3.4-1.5 5.2v.3c-.1.3-.4.4-.7.4H5.4c-1.2-4-2.5-8-3.7-12h2.8c.2 0 .5 0 .7.2.2.1.3.3.3.5.4 2 .9 4 1.3 6 .1.5.2 1 .3 1.6 0-.1 0-.1.1-.2C8 52.8 8.4 51 9 49.1c.2-.6.3-1.2.5-1.8.1-.5.5-.7 1-.8h1.9c.2 0 .3.1.5.2.1.1.2.3.3.4.4 1.5.8 3.1 1.2 4.6.3 1 .5 1.9.8 2.9l.1.1c0-.1 0-.2.1-.3.2-.9.4-1.8.6-2.8.3-1.5.7-3 1.1-4.5.1-.4.4-.7.8-.7h2.9c-1.5 4.2-2.7 8.2-3.9 12.1zm64-17.2h3.5v17.3h-2.5c-.3-.1-.5-.2-.6-.5-.1-.3-.2-.5-.2-.8v-.1l-.2.2c-.4.4-.9.8-1.5 1.1-.9.4-1.8.5-2.7.4-1-.2-1.8-.8-2.4-1.6-.5-.6-.8-1.4-.9-2.1-.2-1-.3-2-.2-3 .1-.9.3-1.8.7-2.7.5-1 1.2-1.9 2.3-2.4.8-.4 1.6-.5 2.5-.5.9 0 1.6.4 2.3.9h.1c-.2-2.3-.2-4.2-.2-6.2zm0 11v-2.4c0-.1 0-.2-.1-.2-.6-.6-1.3-.8-2-.7-.6.1-1.1.4-1.5.9-.1.2-.2.5-.3.7-.2.5-.2 1.1-.2 1.6 0 .7 0 1.3.1 1.9.1.4.2.8.4 1.1.2.3.5.5.9.6.5.1 1.1 0 1.6-.2.4-.2.7-.5 1-.8.1-.1.1-.2.1-.3v-2.2zM33 50.9h.8c.2 0 .4-.2.6-.4.2-.2.3-.5.5-.7l1.8-2.7c.3-.4.6-.6 1.1-.6h3.4c0 .1-.1.1-.1.2-1 1.3-2 2.7-2.9 4-.3.4-.6.7-1 .9 0 0-.1 0-.1.1h.1c.3.3.6.6.8.9 1.1 1.9 2.2 3.8 3.3 5.6 0 0 0 .1.1.1h-3.6c-.4-.1-.6-.3-.8-.6-.3-.5-.5-1-.8-1.5-.5-.9-.9-1.8-1.4-2.7-.1-.1-.1-.2-.2-.3-.1-.1-.2-.2-.4-.2-.3-.1-.7 0-1.1 0v5.3h-3.6V41h3.6v8.4c-.1.7-.1 1.1-.1 1.5zm57.5 2.3v.3c.1.4.2.8.4 1.2.4.7 1 1.1 1.8 1.3.9.1 1.7 0 2.4-.4.2-.1.5-.2.7-.4.2-.1.5-.2.7-.1.2 0 .3.1.5.2.4.5.7.9 1.1 1.4l-.3.3c-.7.7-1.4 1.1-2.3 1.4-1.3.4-2.7.5-4 .2-2.2-.5-3.7-1.9-4.3-4.1-.4-1.3-.4-2.5-.1-3.8.6-2.2 2-3.6 4.2-4.1 1.1-.3 2.2-.2 3.3.1 1.7.5 2.8 1.6 3.3 3.3.3.9.3 1.7.2 2.6v.1c-.1.4-.3.5-.7.6h-6.8c0-.1 0-.1-.1-.1zm4.5-2.1c0-.2 0-.5-.1-.7-.2-.8-.6-1.3-1.4-1.5-.3-.1-.6-.1-1 0-.7.1-1.2.4-1.6 1-.2.3-.3.7-.4 1v.2H95zm-68.9 7.4h-3.5v-12h3.5v12zm20.8-11.9v12h-3.6v-12h3.6z"/></svg>