<?xml version="1.0" encoding="utf-8"?>
<!-- Generator: Adobe Illustrator 21.1.0, SVG Export Plug-In . SVG Version: 6.00 Build 0)  -->
<svg version="1.1" id="Layer_1" xmlns="http://www.w3.org/2000/svg" xmlns:xlink="http://www.w3.org/1999/xlink" x="0px" y="0px"
	 viewBox="0 0 100 100" style="enable-background:new 0 0 100 100;" xml:space="preserve">
<style type="text/css">
	.st0{fill:#FFFFFF;}
</style>
<path d="M27.8,69.5c-0.1,0-0.1,0-0.2,0c-1.9,0-3.8,0-5.6,0c-0.2,0-0.2-0.1-0.3-0.2c-0.5-1.3-1-2.6-1.5-3.9c-0.1-0.1-0.1-0.2-0.3-0.2
	c-3,0-6,0-9.1,0c-0.2,0-0.2,0.1-0.3,0.2C10,66.7,9.5,68,9,69.3c0,0.1-0.1,0.2-0.2,0.2c-1.9,0-3.9,0-5.8,0c0,0-0.1,0-0.1,0
	c0.2-0.4,0.4-0.9,0.6-1.3c1.1-2.6,2.3-5.2,3.4-7.8c1.4-3.3,2.9-6.5,4.3-9.8c0.2-0.5,0.5-1.1,0.7-1.6c0.1-0.1,0.1-0.2,0.2-0.2
	c2.1,0,4.3,0,6.4,0c0.1,0,0.2,0,0.3,0.2c1.7,3.8,3.4,7.6,5,11.5c1.3,2.9,2.6,5.9,3.9,8.8C27.7,69.3,27.7,69.4,27.8,69.5z M18.5,61.4
	c-1.1-2.7-2.1-5.4-3.2-8.1c-1.1,2.7-2.1,5.4-3.2,8.1C14.3,61.4,16.4,61.4,18.5,61.4z"/>
<path d="M47.5,69.4c0.1-0.3,0.2-0.6,0.4-0.8c2.5-5.8,5.1-11.5,7.6-17.3c0.3-0.8,0.7-1.6,1-2.4c0.1-0.1,0.1-0.2,0.3-0.2
	c2.1,0,4.3,0,6.4,0c0.2,0,0.2,0.1,0.3,0.2c1.1,2.6,2.3,5.1,3.4,7.7c1.8,4.2,3.7,8.4,5.5,12.6c0,0.1,0,0.1,0.1,0.2
	c-0.1,0-0.1,0-0.2,0c-1.9,0-3.8,0-5.7,0c-0.1,0-0.2,0-0.3-0.2c-0.5-1.3-1-2.6-1.5-3.9c0-0.1-0.1-0.2-0.2-0.2c-3,0-6.1,0-9.1,0
	c-0.2,0-0.2,0.1-0.3,0.2c-0.5,1.3-1,2.6-1.5,3.9c0,0.1-0.1,0.2-0.2,0.2c-1.9,0-3.8,0-5.7,0C47.7,69.5,47.6,69.4,47.5,69.4z
	 M63.2,61.4c-1.1-2.7-2.1-5.4-3.2-8.1c-1.1,2.7-2.2,5.4-3.2,8.1C58.9,61.4,61.1,61.4,63.2,61.4z"/>
<path d="M27.7,52.4c0-0.1,0-0.1,0-0.2c0-5,0-10,0-15c0-1.1,0.1-2.3,0.4-3.4c0.6-1.8,1.8-2.9,3.5-3.5c1.1-0.4,2.3-0.5,3.5-0.5
	c1.1,0,2.3,0,3.4,0c1.5,0,2.9,0.1,4.4,0.5c1.4,0.4,2.6,1,3.5,2.2c0.6,0.7,0.9,1.6,1.1,2.5c0.2,1,0.2,2.1,0.2,3.1c-1.9,0-3.7,0-5.6,0
	c0-0.5,0-0.9,0-1.4c0-0.4-0.1-0.9-0.2-1.3c-0.4-1.2-1.4-1.9-2.7-1.9c-1.1,0-2.1,0-3.2,0c-0.7,0-1.4,0.1-2,0.5
	c-0.8,0.5-1.2,1.3-1.4,2.1c-0.1,0.5-0.1,1-0.1,1.4c0,4.8,0,9.7,0,14.5c0,0.1,0,0.2,0,0.3c1-1,1.9-2,2.9-2.9c0.9,0.9,1.7,1.8,2.6,2.6
	c-2.6,2.6-5.3,5.3-7.9,7.9c-2.6-2.6-5.3-5.3-7.9-7.9c0.8-0.8,1.7-1.7,2.6-2.6C25.7,50.5,26.7,51.5,27.7,52.4
	C27.7,52.4,27.7,52.4,27.7,52.4z"/>
<path d="M39.7,50.5c-0.9-0.9-1.8-1.8-2.6-2.6c2.6-2.6,5.3-5.3,7.9-7.9c2.6,2.6,5.3,5.3,7.9,7.9c-0.8,0.8-1.7,1.7-2.6,2.6
	c-0.9-1-1.9-1.9-2.9-2.9c0,0,0,0,0,0c0,0.1,0,0.2,0,0.3c0,4.9,0,9.8,0,14.7c0,1-0.1,2.1-0.3,3.1c-0.5,2.2-2,3.6-4.2,4.2
	c-1.1,0.3-2.2,0.4-3.4,0.4c-1.5,0-2.9,0-4.4,0c-1.5-0.1-3.1-0.3-4.5-1c-1.8-0.9-2.9-2.3-3.3-4.3c-0.2-1-0.2-2-0.2-3c0,0,0,0,0-0.1
	c1.9,0,3.7,0,5.6,0c0,0.1,0,0.1,0,0.2c0,0.6,0,1.2,0,1.8c0.1,1.5,1.3,2.6,2.8,2.6c1.1,0,2.2,0,3.4,0c0.7,0,1.4-0.2,2-0.6
	c0.7-0.5,1.1-1.2,1.2-2c0.1-0.5,0.2-0.9,0.2-1.4c0-5,0-9.9,0-14.9c0,0,0-0.1,0-0.1C41.7,48.6,40.7,49.6,39.7,50.5z"/>
<path d="M85.1,55.2c0.3-0.4,0.5-0.7,0.8-1.1c1.2-1.7,2.4-3.4,3.6-5.2c0.1-0.1,0.1-0.2,0.3-0.2c2.1,0,4.3,0,6.4,0c0,0,0.1,0,0.1,0
	c-2.7,3.3-5.3,6.7-8,10c2.9,3.5,5.8,7.1,8.7,10.6c-0.1,0-0.2,0-0.2,0c-2.2,0-4.4,0-6.5,0c-0.2,0-0.3-0.1-0.3-0.2
	c-1.6-2.2-3.2-4.4-4.8-6.6c0-0.1-0.1-0.1-0.1-0.2c-0.2,0.3-0.5,0.6-0.7,1c-1.4,2-2.8,3.9-4.3,5.9c0,0.1-0.1,0.1-0.2,0.1
	c-2.3,0-4.5,0-6.8,0c0,0,0,0-0.1,0c0.2-0.3,0.5-0.6,0.7-0.9c2.2-2.6,4.3-5.2,6.5-7.9c0.5-0.6,0.9-1.1,1.4-1.7c0.1-0.1,0.1-0.2,0-0.3
	c-1.4-1.7-2.8-3.5-4.2-5.2c-1.2-1.5-2.4-3-3.6-4.5c0,0-0.1-0.1-0.1-0.2c0.1,0,0.2,0,0.2,0c2.1,0,4.1,0,6.2,0c0.2,0,0.3,0.1,0.5,0.2
	c1.4,1.9,2.7,3.8,4.1,5.8C84.9,54.9,85,55.1,85.1,55.2z"/>
<path class="white" d="M18.5,61.4c-2.2,0-4.3,0-6.4,0c1.1-2.7,2.1-5.4,3.2-8.1C16.4,56,17.5,58.7,18.5,61.4z"/>
<path class="white" d="M63.2,61.4c-2.2,0-4.3,0-6.4,0c1.1-2.7,2.1-5.4,3.2-8.1C61.1,56,62.1,58.7,63.2,61.4z"/>
</svg>
