<?xml version="1.0" encoding="utf-8"?>
<!-- Generator: Adobe Illustrator 21.1.0, SVG Export Plug-In . SVG Version: 6.00 Build 0)  -->
<svg version="1.1" id="Layer_1" xmlns="http://www.w3.org/2000/svg" xmlns:xlink="http://www.w3.org/1999/xlink" x="0px" y="0px"
	 viewBox="0 0 100 100" style="enable-background:new 0 0 100 100;" xml:space="preserve">
<style type="text/css">
	.st0{fill:#B63031;}
	.st1{fill:#E23337;}
	.st2{fill:#FFFFFF;}
</style>
<g>
	<g>
		<path class="st0" d="M30.4,56.2V44.5h1.5l7.2,9.4v-9.4h1.4v11.7H39l-7.2-9.5v9.5H30.4z M52.2,55.8c-0.9,0.4-2,0.5-3.1,0.5
			c-4.2,0-6.4-2-6.4-6.1c0-3.9,2-5.8,6.1-5.8c1.2,0,2.3,0.2,3.3,0.5v1.3c-1-0.4-2-0.6-3.1-0.6c-3.2,0-4.8,1.5-4.8,4.5
			c0,3.3,1.6,4.9,4.7,4.9c0.5,0,1.1-0.1,1.7-0.2v-3.9h1.5V55.8L52.2,55.8z M54.6,51.7v-7.2h1.5v7.2c0,2.3,1.1,3.4,3.4,3.4
			c2.2,0,3.4-1.1,3.4-3.4v-7.2h1.5v7.2c0,3.1-1.6,4.6-4.9,4.6C56.2,56.3,54.6,54.8,54.6,51.7z M68.5,44.5V55h6.1v1.2H67V44.5H68.5
			L68.5,44.5z M76.9,56.2h-1.6L81.1,43l5.8,13.3h-1.7l-1.5-3.7h-3.9l0.4-1.2h3L81.1,46L76.9,56.2L76.9,56.2z M88.6,56.2V44.5h5
			c2.2,0,3.4,0.9,3.4,2.8c0,1.5-1.1,2.7-3.3,3.4l4,5.5h-2L92,51v-1c2.2-0.4,3.4-1.2,3.4-2.6c0-1.1-0.6-1.6-1.9-1.6h-3.4v10.5H88.6
			L88.6,56.2z"/>
	</g>
	<path class="st1" d="M2.3,41.4l12-4.3l12.3,4.2l-2,15.9l-10.3,5.7L4.2,57.3L2.3,41.4z"/>
	<path class="st0" d="M26.7,41.3l-12.3-4.2v25.8l10.3-5.7L26.7,41.3L26.7,41.3z"/>
	<path class="white" d="M14.4,40.1L6.9,56.8l2.8-0.1l1.5-3.8h6.7l1.6,3.8l2.7,0.1L14.4,40.1L14.4,40.1z M14.4,45.5l2.5,5.3h-4.7
		L14.4,45.5z"/>
</g>
</svg>
