<?xml version="1.0" encoding="utf-8"?>
<!-- Generator: Adobe Illustrator 21.1.0, SVG Export Plug-In . SVG Version: 6.00 Build 0)  -->
<svg version="1.1" id="Layer_1" xmlns="http://www.w3.org/2000/svg" xmlns:xlink="http://www.w3.org/1999/xlink" x="0px" y="0px"
	 viewBox="0 0 100 100" style="enable-background:new 0 0 100 100;" xml:space="preserve">
<style type="text/css">
	.st0{fill:#415361;}
</style>
<path class="st0" d="M19.1,44.7l-8.4-4.9c-0.2-0.1-0.4-0.1-0.5,0l-8.4,4.9c-0.2,0.1-0.3,0.3-0.3,0.5v9.7c0,0.2,0.1,0.4,0.3,0.5
	l8.4,4.9c0.2,0.1,0.4,0.1,0.5,0l8.4-4.9c0.2-0.1,0.3-0.3,0.3-0.5v-9.7C19.4,44.9,19.3,44.8,19.1,44.7L19.1,44.7z M9.8,42.9
	C9.8,43,9.7,43,9.8,42.9l-3.1,1.8c-0.1,0-0.1,0.1,0,0.2l3,1.7c0,0,0,0,0,0.1V48c0,0.1-0.1,0.1-0.1,0.1l-5.5-3.2
	c-0.1,0-0.1-0.1,0-0.2l5.5-3.2c0.1,0,0.1,0,0.1,0.1L9.8,42.9L9.8,42.9z M16.7,44.9l-5.5,3.2c-0.1,0-0.1,0-0.1-0.1v-1.3
	c0,0,0-0.1,0-0.1l3-1.7c0.1,0,0.1-0.1,0-0.2l-3-1.7c0,0,0,0,0-0.1v-1.3c0-0.1,0.1-0.1,0.1-0.1l5.5,3.2
	C16.7,44.8,16.7,44.9,16.7,44.9L16.7,44.9z M37.3,53.2c0,0,0,0.1,0,0.1c-0.2,0.3-0.5,0.5-0.7,0.8c-0.3,0.3-0.6,0.5-1,0.7
	c-0.4,0.2-0.8,0.3-1.2,0.5c-0.4,0.1-0.9,0.2-1.4,0.2c-0.8,0-1.5-0.1-2.1-0.4c-0.6-0.3-1.2-0.6-1.7-1.1c-0.5-0.5-0.8-1-1.1-1.7
	c-0.3-0.7-0.4-1.4-0.4-2.1c0-0.8,0.1-1.5,0.4-2.1c0.3-0.7,0.6-1.2,1.1-1.7c0.5-0.5,1-0.9,1.7-1.2c0.7-0.3,1.4-0.4,2.2-0.4
	c1,0,1.8,0.2,2.5,0.5c0.7,0.3,1.3,0.8,1.7,1.4c0,0,0,0.1,0,0.1l-1.5,1.4c0,0-0.1,0-0.1,0c-0.3-0.4-0.6-0.7-1-1
	c-0.4-0.3-0.9-0.4-1.5-0.4c-0.5,0-0.9,0.1-1.2,0.3c-0.4,0.2-0.7,0.4-0.9,0.7c-0.3,0.3-0.5,0.6-0.6,1c-0.1,0.4-0.2,0.8-0.2,1.3
	c0,0.5,0.1,0.9,0.2,1.3c0.1,0.4,0.3,0.7,0.6,1c0.3,0.3,0.6,0.5,0.9,0.7c0.4,0.2,0.8,0.2,1.2,0.2c0.4,0,0.7,0,1-0.1
	c0.3-0.1,0.5-0.2,0.7-0.3c0.2-0.1,0.4-0.3,0.6-0.4c0.1-0.1,0.3-0.3,0.4-0.4c0,0,0.1,0,0.1,0L37.3,53.2L37.3,53.2z M38.5,45
	C38.5,44.9,38.5,44.9,38.5,45l3.8-0.1c0.6,0,1.1,0.1,1.6,0.3c0.5,0.2,0.8,0.4,1.1,0.7c0.3,0.3,0.5,0.6,0.7,1
	c0.1,0.4,0.2,0.8,0.2,1.2c0,0.7-0.1,1.2-0.4,1.7c-0.3,0.5-0.7,0.9-1.2,1.1c0,0-0.1,0.1,0,0.1l2.2,3.9c0,0.1,0,0.1-0.1,0.1H44
	c0,0-0.1,0-0.1-0.1L42,51.4c0,0,0-0.1-0.1-0.1h-1.1c-0.1,0-0.1,0-0.1,0.1V55c0,0.1,0,0.1-0.1,0.1h-2.1c-0.1,0-0.1,0-0.1-0.1L38.5,45
	L38.5,45z M42.1,49.5c0.4,0,0.8-0.1,1-0.4c0.2-0.3,0.4-0.6,0.4-1c0-0.4-0.1-0.8-0.4-1c-0.2-0.2-0.6-0.4-1-0.4h-1.3
	c-0.1,0-0.1,0-0.1,0.1v2.5c0,0.1,0,0.1,0.1,0.1C40.8,49.5,42.1,49.5,42.1,49.5z M47.8,44.9h6.8c0.1,0,0.1,0,0.1,0.1v1.8
	c0,0.1,0,0.1-0.1,0.1h-4.5c-0.1,0-0.1,0-0.1,0.1v1.8c0,0.1,0,0.1,0.1,0.1h3.5c0.1,0,0.1,0,0.1,0.1v1.8c0,0.1,0,0.1-0.1,0.1h-3.5
	c-0.1,0-0.1,0-0.1,0.1v2c0,0.1,0,0.1,0.1,0.1H55c0.1,0,0.1,0,0.1,0.1V55c0,0.1,0,0.1-0.1,0.1h-7.2c-0.1,0-0.1,0-0.1-0.1L47.8,44.9
	C47.7,44.9,47.8,44.9,47.8,44.9L47.8,44.9z M59.6,44.9H62c0,0,0.1,0,0.1,0.1L65.8,55c0,0.1,0,0.1-0.1,0.1h-2.3c0,0-0.1,0-0.1-0.1
	l-0.7-2.2c0,0,0-0.1-0.1-0.1h-3.5c0,0-0.1,0-0.1,0.1l-0.7,2.2c0,0,0,0.1-0.1,0.1h-2.2c-0.1,0-0.1-0.1-0.1-0.1L59.6,44.9
	C59.5,44.9,59.5,44.9,59.6,44.9L59.6,44.9z M61.9,50.9l-1.1-3.5c0-0.1-0.1-0.1-0.2,0l-1.1,3.5c0,0.1,0,0.1,0.1,0.1h2.3
	C61.9,51,61.9,50.9,61.9,50.9L61.9,50.9z M68,46.9h-3.1c-0.1,0-0.1,0-0.1-0.1V45c0-0.1,0-0.1,0.1-0.1h8.8c0.1,0,0.1,0,0.1,0.1v1.9
	c0,0.1,0,0.1-0.1,0.1h-3.1c-0.1,0-0.1,0-0.1,0.1v8c0,0.1,0,0.1-0.1,0.1h-2.2c-0.1,0-0.1,0-0.1-0.1L68,46.9C68.1,47,68,46.9,68,46.9
	L68,46.9z M75.1,44.9H82c0.1,0,0.1,0,0.1,0.1v1.8c0,0.1,0,0.1-0.1,0.1h-4.5c-0.1,0-0.1,0-0.1,0.1v1.8c0,0.1,0,0.1,0.1,0.1h3.5
	c0.1,0,0.1,0,0.1,0.1v1.8c0,0.1,0,0.1-0.1,0.1h-3.5c-0.1,0-0.1,0-0.1,0.1v2c0,0.1,0,0.1,0.1,0.1h4.8c0.1,0,0.1,0,0.1,0.1V55
	c0,0.1,0,0.1-0.1,0.1h-7.2c-0.1,0-0.1,0-0.1-0.1L75.1,44.9C75,44.9,75.1,44.9,75.1,44.9L75.1,44.9z M84.6,53.1c0,0,0.1,0,0.1,0
	c0.3,0.3,0.6,0.5,0.8,0.7c0.3,0.2,0.7,0.2,1.1,0.2c0.2,0,0.5,0,0.7-0.1c0.2-0.1,0.4-0.2,0.6-0.4c0.2-0.2,0.3-0.4,0.4-0.6
	c0.1-0.3,0.1-0.6,0.1-0.9v-7c0-0.1,0-0.1,0.1-0.1h1.3c0.1,0,0.1,0,0.1,0.1v7.2c0,0.6-0.1,1.1-0.3,1.5c-0.2,0.4-0.4,0.8-0.7,1
	c-0.3,0.3-0.6,0.5-1,0.6c-0.4,0.1-0.8,0.2-1.2,0.2c-0.8,0-1.4-0.1-1.9-0.4c-0.5-0.3-0.8-0.6-1.1-0.9c0,0,0-0.1,0-0.1L84.6,53.1
	L84.6,53.1z M92.1,52.7c0,0,0.1,0,0.1,0c0.1,0.1,0.3,0.3,0.4,0.4c0.2,0.2,0.4,0.3,0.6,0.5c0.2,0.1,0.5,0.2,0.8,0.3
	c0.3,0.1,0.6,0.1,0.9,0.1c0.7,0,1.2-0.2,1.6-0.5c0.4-0.3,0.6-0.7,0.6-1.2c0-0.6-0.2-1-0.6-1.3c-0.4-0.3-1.1-0.5-1.9-0.7
	c-0.4-0.1-0.8-0.2-1.2-0.4c-0.4-0.2-0.7-0.4-0.9-0.6s-0.5-0.5-0.6-0.9s-0.2-0.7-0.2-1.1c0-0.4,0.1-0.7,0.2-1.1s0.4-0.6,0.6-0.9
	c0.3-0.3,0.6-0.5,1.1-0.6c0.4-0.2,0.9-0.2,1.5-0.2c0.5,0,0.9,0.1,1.3,0.2c0.4,0.1,0.7,0.2,0.9,0.4c0.3,0.2,0.5,0.3,0.6,0.5
	c0.1,0.1,0.2,0.2,0.3,0.3c0,0,0,0.1,0,0.1l-0.9,0.8c0,0-0.1,0-0.1,0c-0.1-0.1-0.1-0.1-0.2-0.2c-0.1-0.1-0.3-0.2-0.5-0.3
	c-0.2-0.1-0.4-0.2-0.7-0.3c-0.3-0.1-0.5-0.1-0.9-0.1c-0.3,0-0.6,0-0.8,0.1c-0.2,0.1-0.4,0.2-0.6,0.3c-0.2,0.1-0.3,0.3-0.3,0.5
	c-0.1,0.2-0.1,0.3-0.1,0.5c0,0.3,0.1,0.5,0.2,0.7c0.1,0.2,0.3,0.3,0.5,0.5c0.2,0.1,0.5,0.3,0.8,0.4c0.3,0.1,0.6,0.2,1,0.3
	c0.4,0.1,0.8,0.2,1.1,0.4c0.4,0.1,0.7,0.3,1,0.6c0.3,0.3,0.5,0.6,0.7,0.9c0.2,0.4,0.3,0.8,0.3,1.3c0,0.4-0.1,0.8-0.3,1.2
	c-0.2,0.4-0.4,0.7-0.8,1c-0.3,0.3-0.7,0.5-1.1,0.6c-0.4,0.1-0.9,0.2-1.4,0.2c-0.5,0-0.9-0.1-1.3-0.2c-0.4-0.1-0.8-0.3-1.1-0.4
	c-0.3-0.2-0.6-0.4-0.8-0.6c-0.2-0.2-0.4-0.4-0.5-0.6c0,0,0-0.1,0-0.1L92.1,52.7L92.1,52.7z"/>
</svg>
