<?xml version="1.0" encoding="utf-8"?>
<!-- Generator: Adobe Illustrator 21.1.0, SVG Export Plug-In . SVG Version: 6.00 Build 0)  -->
<svg version="1.1"
	 id="svg3476" inkscape:version="0.91 r13725" sodipodi:docname="CSS3.svg" xmlns:cc="http://creativecommons.org/ns#" xmlns:dc="http://purl.org/dc/elements/1.1/" xmlns:inkscape="http://www.inkscape.org/namespaces/inkscape" xmlns:rdf="http://www.w3.org/1999/02/22-rdf-syntax-ns#" xmlns:sodipodi="http://sodipodi.sourceforge.net/DTD/sodipodi-0.dtd" xmlns:svg="http://www.w3.org/2000/svg"
	 xmlns="http://www.w3.org/2000/svg" xmlns:xlink="http://www.w3.org/1999/xlink" x="0px" y="0px" viewBox="0 0 100 100.1"
	 style="enable-background:new 0 0 100 100.1;" xml:space="preserve">
<style type="text/css">
	.st0{fill:#264DE4;}
	.st1{fill:#2965F1;}
	.white{fill:#FFFFFF;}
</style>
<sodipodi:namedview  bordercolor="#666666" borderopacity="1.0" fit-margin-bottom="0" fit-margin-left="0" fit-margin-right="0" fit-margin-top="0" id="base" inkscape:current-layer="layer1" inkscape:cx="181.367" inkscape:cy="256" inkscape:document-units="px" inkscape:pageopacity="0.0" inkscape:pageshadow="2" inkscape:window-height="704" inkscape:window-maximized="1" inkscape:window-width="1366" inkscape:window-x="0" inkscape:window-y="27" inkscape:zoom="0.35" pagecolor="#ffffff" showgrid="false">
	</sodipodi:namedview>
<g id="layer1" transform="translate(-193.633,-276.3622)" inkscape:groupmode="layer" inkscape:label="Calque 1">
	<g id="g3013" transform="translate(119,276.3622)">
		<polygon id="polygon2989" class="st0" points="160.1,19.7 153.6,92 124.6,100.1 95.7,92 89.2,19.7 		"/>
		<polygon id="polygon2991" class="st1" points="148.1,87.4 153.6,25.6 124.7,25.6 124.7,93.9 		"/>
		<polygon id="polygon2993" class="white" points="104,52.4 104.8,61.3 124.7,61.3 124.7,52.4 		"/>
		<polygon id="polygon2995" class="white" points="124.7,34.5 124.6,34.5 102.4,34.5 103.2,43.3 124.7,43.3 		"/>
		<polygon id="polygon2997" class="white" points="124.7,84.7 124.7,75.5 124.6,75.5 114.7,72.8 114.1,65.7 109.3,65.7 105.2,65.7 
			106.4,79.7 124.6,84.7 		"/>
		<path id="path2999" inkscape:connector-curvature="0" d="M105.9,0h10.7v4.5h-6.3V9h6.3v4.5h-10.7V0z"/>
		<path id="path3001" inkscape:connector-curvature="0" d="M118.8,0h10.7v3.9h-6.3v0.8h6.3v9h-10.7V9.6h6.3V8.8h-6.3V0z"/>
		<path id="path3003" inkscape:connector-curvature="0" d="M131.7,0h10.7v3.9h-6.3v0.8h6.3v9h-10.7V9.6h6.3V8.8h-6.3V0z"/>
		<polygon id="polygon3005" class="white" points="135.6,61.3 134.5,72.8 124.6,75.5 124.6,84.7 142.8,79.7 143,78.2 145,54.8 
			145.3,52.4 146.9,34.5 124.6,34.5 124.6,43.3 137.1,43.3 136.3,52.4 124.6,52.4 124.6,61.3 		"/>
	</g>
</g>
</svg>
