<?xml version="1.0" encoding="utf-8"?>
<!-- Generator: Adobe Illustrator 21.1.0, SVG Export Plug-In . SVG Version: 6.00 Build 0)  -->
<svg version="1.1" id="Layer_1" xmlns="http://www.w3.org/2000/svg" xmlns:xlink="http://www.w3.org/1999/xlink" x="0px" y="0px"
	 viewBox="0 0 100 100" style="enable-background:new 0 0 100 100;" xml:space="preserve">
<style type="text/css">
	.st0{fill:#010101;}
	.st1{fill:#E44F26;}
	.st2{fill:#F1672A;}
	.st3{fill:#EBEBEB;}
	.st4{fill:#FFFFFF;}
</style>
<path class="st0" d="M22.3,2h4.3v4.3h4V2h4.3V15h-4.3v-4.3h-3.9V15h-4.3 M40.6,6.3h-3.8V2h11.9v4.3h-3.8V15h-4.3 M50.7,2h4.5
	l2.8,4.6L60.7,2h4.5V15h-4.3V8.5l-3,4.6l-3-4.6V15h-4.2 M67.4,2h4.3v8.7h6.1V15H67.4"/>
<path class="st1" d="M22.2,90.3L16,20.9h68l-6.2,69.4L49.9,98"/>
<path class="st2" d="M50,92.1V26.6h27.8l-5.3,59.2"/>
<path class="white" d="M28.6,35.1H50v8.5H38l0.8,8.7H50v8.5H31 M31.3,65.1h8.5l0.6,6.8l9.5,2.5v8.9l-17.5-4.9"/>
<path class="white" d="M71.3,35.1H50v8.5h20.5 M69.7,52.3H50v8.5h10.5l-1,11.1L50,74.4v8.8l17.4-4.8"/>
</svg>
