<?xml version="1.0" encoding="utf-8"?>
<!-- Generator: Adobe Illustrator 21.1.0, SVG Export Plug-In . SVG Version: 6.00 Build 0)  -->
<svg version="1.1" id="Layer_1" xmlns="http://www.w3.org/2000/svg" xmlns:xlink="http://www.w3.org/1999/xlink" x="0px" y="0px"
	 viewBox="0 0 100 100" style="enable-background:new 0 0 100 100;" xml:space="preserve">
<style type="text/css">
	.st0{fill:#63A814;}
	.st1{fill:#8ACF17;}
	.st2{fill:#FFFFFF;}
	.st3{fill:#EBEBEB;}
</style>
<path class="st0" d="M21,91.9l-6.4-72.4h70.9L79,91.9L50,100L21,91.9z"/>
<path class="st1" d="M50,93.8l23.4-6.5L79,25.5H50V93.8z"/>
<path id="J_1_" class="white" d="M27.7,34.5l0.8,8.8h33.9l-2.5,29.5L50,75.5l-9.9-2.7l-0.6-7.1h-8.9l1.2,14L50,84.7l18.2-5.1l4-45.2
	H27.7z"/>
<path class="white" d="M50,75.5l-9.9-2.7l-0.6-7.1h-8.9l1.2,14L50,84.7L50,75.5z M28.5,43.3H50v-8.8H27.7L28.5,43.3z"/>
<path d="M43.6,0v8.6h-7.4v4.8h12.4V0H43.6z M51,0v5L56.4,9H51v4.3h12.6V9l-6.1-4.7h6.1V0H51z"/>
</svg>
