<?xml version="1.0" encoding="utf-8"?>
<!-- Generator: Adobe Illustrator 21.1.0, SVG Export Plug-In . SVG Version: 6.00 Build 0)  -->
<svg version="1.0" id="Layer_1" xmlns="http://www.w3.org/2000/svg" xmlns:xlink="http://www.w3.org/1999/xlink" x="0px" y="0px"
	 viewBox="0 0 100 100" style="enable-background:new 0 0 100 100;" xml:space="preserve">
<style type="text/css">
	.st0{fill:#64676B;}
	.st1{fill:#64686C;}
</style>
<g id="layer1_1_" transform="translate(-283.50615,-410.43868)">
	<g id="flowRoot2998_1_" transform="matrix(4.2191115,0,0,4.2191115,-384.028,-1510.8399)">
		<path id="path3911_1_" class="st0" d="M172.6,468.3v-2.7h0.3l0.9,1.6h0l0.9-1.6h0.3v2.7h-0.3
			v-1.6l0-0.4h0l-0.8,1.5h-0.2l-0.8-1.5h0l0,0.4v1.6H172.6z"/>
		<path id="path3913_1_" class="st0" d="M176.2,468.4c-0.2,0-0.4-0.1-0.5-0.2
			c-0.1-0.1-0.2-0.3-0.2-0.4c0-0.2,0.1-0.4,0.2-0.5c0.2-0.1,0.3-0.2,0.6-0.2c0.2,0,0.4,0,0.5,0.1v-0.1c0-0.1,0-0.2-0.1-0.3
			s-0.2-0.1-0.3-0.1c-0.1,0-0.2,0-0.3,0.1c-0.1,0-0.1,0.1-0.2,0.2l-0.3-0.1c0-0.1,0.1-0.2,0.2-0.3c0.1-0.1,0.3-0.1,0.5-0.1
			c0.2,0,0.4,0.1,0.6,0.2s0.2,0.3,0.2,0.6v1.1h-0.3v-0.3h0C176.7,468.3,176.5,468.4,176.2,468.4z M176.3,468.1
			c0.1,0,0.3-0.1,0.4-0.2s0.2-0.2,0.2-0.4c-0.1-0.1-0.2-0.1-0.4-0.1c-0.2,0-0.3,0-0.4,0.1c-0.1,0.1-0.1,0.2-0.1,0.3
			c0,0.1,0,0.2,0.1,0.2C176.1,468,176.2,468.1,176.3,468.1z"/>
		<path id="path3915_1_" class="st0" d="M178.5,468.4c-0.1,0-0.3,0-0.4-0.1s-0.2-0.1-0.2-0.2h0
			l0,0.3v0.8h-0.3v-2.6h0.3v0.3h0c0.1-0.1,0.1-0.2,0.2-0.2c0.1-0.1,0.2-0.1,0.4-0.1c0.2,0,0.4,0.1,0.6,0.3s0.3,0.4,0.3,0.7
			c0,0.3-0.1,0.5-0.3,0.7S178.8,468.4,178.5,468.4z M178.5,468.1c0.2,0,0.3-0.1,0.4-0.2c0.1-0.1,0.2-0.3,0.2-0.5
			c0-0.2-0.1-0.4-0.2-0.5c-0.1-0.1-0.3-0.2-0.4-0.2c-0.2,0-0.3,0.1-0.4,0.2s-0.2,0.3-0.2,0.5c0,0.2,0.1,0.4,0.2,0.5
			S178.3,468.1,178.5,468.1z"/>
		<path id="path3917_1_" class="st0" d="M180.4,468.4c-0.2,0-0.4,0-0.5-0.1
			c-0.1-0.1-0.2-0.2-0.3-0.4l0.3-0.1c0.1,0.2,0.3,0.3,0.5,0.3c0.1,0,0.2,0,0.3-0.1c0.1,0,0.1-0.1,0.1-0.2c0-0.1-0.1-0.2-0.2-0.2
			l-0.4-0.1c-0.1,0-0.2-0.1-0.3-0.2c-0.1-0.1-0.2-0.2-0.2-0.3c0-0.2,0.1-0.3,0.2-0.4c0.1-0.1,0.3-0.2,0.5-0.2c0.2,0,0.3,0,0.4,0.1
			c0.1,0.1,0.2,0.2,0.3,0.3l-0.3,0.1c-0.1-0.2-0.2-0.2-0.4-0.2c-0.1,0-0.2,0-0.3,0.1c-0.1,0-0.1,0.1-0.1,0.2c0,0.1,0.1,0.2,0.2,0.2
			l0.4,0.1c0.2,0,0.3,0.1,0.4,0.2c0.1,0.1,0.1,0.2,0.1,0.3c0,0.2-0.1,0.3-0.2,0.4C180.8,468.3,180.6,468.4,180.4,468.4z"/>
	</g>
	<path id="path3064_1_"  class="st1" d="M299.8,457.9h-6.1
		v1.8h4.3c-0.2,2.5-2.3,3.6-4.3,3.6c-2.6,0-4.8-2-4.8-4.8c0-2.7,2.1-4.9,4.8-4.9c2.1,0,3.3,1.3,3.3,1.3l1.3-1.3c0,0-1.6-1.8-4.6-1.8
		c-3.8,0-6.7,3.2-6.7,6.6c0,3.4,2.8,6.7,6.8,6.7c3.6,0,6.2-2.4,6.2-6.1C299.9,458.4,299.8,457.9,299.8,457.9L299.8,457.9z"/>
	<path id="path3066_1_" class="st1" d="M304.8,456.6c-2.5,0-4.3,2-4.3,4.2c0,2.3,1.7,4.3,4.3,4.3
		c2.3,0,4.3-1.8,4.3-4.3C309.1,458.1,306.9,456.6,304.8,456.6z M304.9,458.3c1.2,0,2.4,1,2.4,2.6c0,1.6-1.2,2.6-2.4,2.6
		c-1.4,0-2.4-1.1-2.4-2.6C302.4,459.4,303.5,458.3,304.9,458.3z"/>
	<path id="path3068_1_"  class="st1" d="M314.2,456.6c-2.5,0-4.3,2-4.3,4.2c0,2.3,1.7,4.3,4.3,4.3
		c2.3,0,4.3-1.8,4.3-4.3C318.5,458.1,316.3,456.6,314.2,456.6z M314.2,458.3c1.2,0,2.4,1,2.4,2.6c0,1.6-1.2,2.6-2.4,2.6
		c-1.4,0-2.4-1.1-2.4-2.6C311.8,459.4,312.8,458.3,314.2,458.3z"/>
	<path id="path3070_1_"  class="st1" d="M323.4,456.6c-2.3,0-4.1,2-4.1,4.3c0,2.6,2.1,4.3,4.1,4.3
		c1.2,0,1.9-0.5,2.3-1v0.8c0,1.5-0.9,2.4-2.3,2.4c-1.3,0-2-1-2.2-1.5l-1.6,0.7c0.6,1.2,1.8,2.5,3.9,2.5c2.3,0,4-1.4,4-4.5v-7.7h-1.8
		v0.7C325.2,457,324.4,456.6,323.4,456.6L323.4,456.6z M323.6,458.3c1.1,0,2.3,1,2.3,2.6c0,1.7-1.2,2.6-2.3,2.6
		c-1.2,0-2.4-1-2.4-2.6C321.2,459.3,322.4,458.3,323.6,458.3z"/>
	<path id="path3072_1_" class="st1" d="M335.5,456.6c-2.2,0-4,1.7-4,4.3c0,2.7,2,4.3,4.2,4.3
		c1.8,0,2.9-1,3.6-1.9l-1.5-1c-0.4,0.6-1,1.2-2.1,1.2c-1.2,0-1.8-0.7-2.1-1.3l5.7-2.4l-0.3-0.7C338.5,457.7,337.2,456.6,335.5,456.6
		L335.5,456.6z M335.6,458.2c0.8,0,1.3,0.4,1.6,0.9l-3.8,1.6C333.1,459.5,334.3,458.2,335.6,458.2L335.6,458.2z"/>
	<path id="path3074_1_" class="st1" d="M328.8,464.9h1.9v-12.6h-1.9V464.9z"/>
</g>
</svg>
