<?xml version="1.0" encoding="utf-8"?>
<!-- Generator: Adobe Illustrator 21.1.0, SVG Export Plug-In . SVG Version: 6.00 Build 0)  -->
<svg version="1.1" id="Layer_1" xmlns="http://www.w3.org/2000/svg" xmlns:xlink="http://www.w3.org/1999/xlink" x="0px" y="0px"
	 viewBox="0 0 100 100" style="enable-background:new 0 0 100 100;" xml:space="preserve">
<style type="text/css">
	.st0{fill:#010101;}
	.st1{fill:#020202;}
</style>
<path class="st0" d="M36.2,40.8L34.1,41c0,0.4,0,0.7,0,1c0.1,2.6,1.5,3.1,2.7,3.1h0.3l3.5-0.3c0.1-0.4,0.1-0.7,0.1-0.7
	s-0.4-22-0.5-24.7c0-0.6-0.2-1.1-0.4-1.5c-1.3-0.1-2.4-0.2-3.3-0.2h-0.4c-0.9,0-1.5,0.2-1.9,0.6c-0.6,0.7-0.6,1.7-0.6,1.7v0.1
	c0,0,0,0.6,0,1.6c1.7,0.1,2.9,0.2,2.9,0.2s1.9,0.4,2,2.4c0.1,2.2,0.1,14.3,0.1,14.3S39,40.4,36.2,40.8z M29.5,41.3L26,41.6
	c0,0-2.9,0.4-3-2.8c-0.1-2.3-0.3-15.5-0.3-15.5s-0.2-2.4,2.8-2.2c0.9,0.1,2.2,0.1,3.6,0.2c0-2.2-0.1-4.1-0.1-5.6
	c-1.9-0.1-3.7-0.3-4.9-0.4c-3.9-0.4-3.7,2.9-3.7,2.9s0.5,24.3,0.6,27.2c0.1,3.6,3.9,3,3.9,3l4.7-0.5C29.6,46.1,29.6,43.8,29.5,41.3z
	 M71.5,11.2c-0.2-4.6-4.2-5.5-4.2-5.5S53.5,3.7,47.4,2.9S41.8,8,41.8,8s1.4,42.8,1.5,48.1c0.2,6.3,6.1,5.3,6.1,5.3l20.8-3.6
	c3.8-0.7,4-5.5,4-5.5S71.7,16.2,71.5,11.2L71.5,11.2z M66.8,47.6l-15.5,1.6c0,0-4.5,0.7-4.6-4.8c-0.1-4.1-1-27.2-1-27.2
	s-0.3-4.2,4.3-3.9c4.7,0.4,16.1,1.2,16.1,1.2s3.1,0.7,3.2,4.2c0.1,3.8,1.4,24.7,1.4,24.7S71.1,46.9,66.8,47.6L66.8,47.6z M51.2,48.4
	l6-0.6c-0.3-6.1-1.4-29.7-1.5-33.2v-0.1c-2.2-0.2-4.2-0.3-5.7-0.4l-0.5,0c-1,0-1.7,0.3-2.2,0.8c-0.8,0.9-0.7,2.2-0.7,2.2v0
	c0,0,0,0.1,0,0.4c2.4,0.2,4.3,0.4,4.3,0.4s2.6,0.6,2.7,3.4c0.1,3.1,0.9,19.8,0.9,19.8s0.3,2.8-3.4,3.4L47.6,45
	c0.2,2.9,1.9,3.5,3.3,3.5C51.1,48.4,51.2,48.4,51.2,48.4C51.2,48.4,51.2,48.4,51.2,48.4L51.2,48.4z M42.1,45.5l-4.8,0.5
	c0,0-3.9,0.6-4-3.9c-0.1-3.3-0.4-22.1-0.4-22.1s-0.3-3.5,3.7-3.2c1.2,0.1,2.8,0.2,4.6,0.4c-0.1-3.6-0.2-6.4-0.2-7.9
	c-2.3-0.2-4.6-0.5-6.2-0.6c-5.3-0.6-4.9,4.1-4.9,4.1s0.6,34.4,0.7,38.6c0.1,5,5.3,4.2,5.3,4.2l6.5-0.8
	C42.3,52.7,42.3,49.4,42.1,45.5L42.1,45.5z"/>
<path class="st1" d="M32.2,76.2l-1.4,3.9c0,0.1,0,0.1-0.1,0.1H30c-0.1,0-0.1,0-0.1-0.1c0.9-2.6,2.6-7.1,3.7-9.9
	c0.1-0.1,0.1-0.1,0.1-0.4c0-0.1,0-0.1,0.1-0.1h0.9c0.1,0,0.1,0,0.1,0.1l3.8,10.4c0,0.1,0,0.1-0.1,0.1h-0.6c0,0-0.1,0-0.1-0.1
	l-1.5-3.9L32.2,76.2L32.2,76.2z M36.2,75.6c-0.4-1-1.6-4.3-1.9-5.4h0c-0.2,0.9-1.1,3.2-1.9,5.4H36.2z M39.4,76.4c0-2.4,1.7-4,4-4
	c0.5,0,1.1,0.1,1.6,0.2v-3.9c0-0.1,0-0.1,0.1-0.1h0.5c0.1,0,0.1,0,0.1,0.1v10.3c0,0.2,0,0.4,0,0.5c0,0.1,0,0.1-0.1,0.1
	c-0.8,0.5-1.7,0.7-2.6,0.7C40.9,80.3,39.4,78.9,39.4,76.4L39.4,76.4z M45,73.4c-0.4-0.2-1-0.3-1.6-0.3c-2.2,0-3.3,1.5-3.3,3.3
	c0,2.4,1.5,3.3,3,3.3c0.7,0,1.3-0.1,1.8-0.4L45,73.4L45,73.4z M54.2,76.4c0,2.4-1.4,3.9-3.4,3.9c-2.5,0-3.5-2.1-3.5-3.9
	c0-2.3,1.4-3.9,3.5-3.9C52.8,72.4,54.2,74,54.2,76.4z M48,76.3c0,1.8,0.9,3.4,2.8,3.4c1.3,0,2.7-0.9,2.7-3.3c0-1.7-0.8-3.4-2.8-3.4
	C49.1,73,48,74.4,48,76.3z M56.5,68.7C56.5,68.7,56.5,68.7,56.5,68.7l0.1,4.3c0.7-0.4,1.5-0.6,2.3-0.6c2.1,0,3.3,1.5,3.3,3.6
	c0,2.7-2.1,4.3-4.1,4.3c-0.7,0-1.4-0.1-2-0.3c-0.1,0-0.1-0.1-0.1-0.1V68.8c0-0.1,0-0.1,0.1-0.1L56.5,68.7L56.5,68.7z M58.7,73.1
	c-0.7,0-1.5,0.2-2.1,0.5v5.9c0.4,0.1,0.9,0.2,1.5,0.2c1.7,0,3.4-1.2,3.4-3.6C61.4,74.4,60.4,73.1,58.7,73.1L58.7,73.1z M64,76.2
	c-0.1,2,1,3.4,2.9,3.4c0.6,0,1.3-0.1,2-0.5c0.1,0,0.1,0,0.1,0.1v0.5c0,0.1,0,0.1-0.1,0.1c-0.5,0.3-1.1,0.5-2.1,0.5
	c-2.6,0-3.5-2-3.5-3.9c0-2.3,1.3-4,3.3-4c2.1,0,2.9,1.8,2.9,2.9c0,0.5,0,0.7-0.1,0.8c-0.3,0.1-1,0.1-1.7,0.1L64,76.2L64,76.2z
	 M67.6,75.7c1,0,1.1,0,1.2-0.1c0-0.1,0-0.2,0-0.3c0-0.6-0.4-2.2-2.2-2.2c-1.5,0-2.3,1.2-2.5,2.6H67.6z M19.1,83
	C19.1,82.9,19.1,82.9,19.1,83c0.5-0.1,1.4-0.1,2.3-0.1c2.7,0,3.8,1.4,3.8,3.3c0,2.5-1.9,3.5-4.1,3.5c-0.7,0-1.2,0-1.3,0v3.6
	c0,0.1,0,0.1-0.1,0.1h-0.6c-0.1,0-0.1,0-0.1-0.1V83L19.1,83z M19.8,89c0.2,0,0.5,0,1.3,0c1.6,0,3.4-0.6,3.4-2.9
	c0-1.9-1.3-2.7-3.1-2.7c-0.8,0-1.5,0-1.6,0L19.8,89L19.8,89z M26.9,82C26.9,81.9,26.9,81.9,26.9,82l0.6-0.1c0.1,0,0.1,0,0.1,0.1v4.7
	c0.6-0.6,1.5-1.1,2.6-1.1c1,0,2.5,0.5,2.5,3v4.6c0,0.1,0,0.1-0.1,0.1h-0.6c-0.1,0-0.1,0-0.1-0.1v-4.7c0-1.5-0.7-2.3-1.9-2.3
	c-1.1,0-1.9,0.5-2.4,1.1v5.9c0,0.1,0,0.1-0.1,0.1H27c-0.1,0-0.1,0-0.1-0.1L26.9,82L26.9,82z M41.2,89.6c0,2.4-1.4,3.9-3.4,3.9
	c-2.5,0-3.5-2.1-3.5-3.9c0-2.3,1.4-3.9,3.5-3.9C39.8,85.6,41.2,87.2,41.2,89.6z M35,89.5c0,1.8,0.9,3.4,2.8,3.4
	c1.3,0,2.7-0.9,2.7-3.3c0-1.7-0.8-3.4-2.8-3.4C36.1,86.2,35,87.6,35,89.5z M42.8,87.6c0-0.6-0.1-1.5-0.1-1.7c0-0.1,0-0.1,0.1-0.1
	h0.5c0.1,0,0.1,0,0.1,0.1c0,0.1,0.1,0.6,0.1,0.9c0.8-0.7,1.7-1.2,2.6-1.2c0.9,0,2.5,0.5,2.5,3v4.6c0,0.1,0,0.1-0.1,0.1H48
	c-0.1,0-0.1,0-0.1-0.1v-4.6c0-1.4-0.6-2.3-1.9-2.3c-0.9,0-1.8,0.5-2.4,1.2v5.8c0,0.1,0,0.1-0.1,0.1h-0.6c-0.1,0-0.1,0-0.1-0.1
	L42.8,87.6L42.8,87.6z M50.9,89.4c-0.1,2,1,3.4,2.9,3.4c0.6,0,1.3-0.1,2-0.5c0.1,0,0.1,0,0.1,0.1v0.5c0,0.1,0,0.1-0.1,0.1
	c-0.5,0.3-1.1,0.5-2.1,0.5c-2.6,0-3.5-2-3.5-3.9c0-2.3,1.3-4,3.3-4c2.1,0,2.9,1.8,2.9,2.9c0,0.5,0,0.7-0.1,0.8
	c-0.3,0.1-1,0.1-1.7,0.1L50.9,89.4L50.9,89.4z M54.5,88.9c1,0,1.1,0,1.2-0.1c0-0.1,0-0.2,0-0.3c0-0.6-0.4-2.2-2.2-2.2
	c-1.5,0-2.3,1.2-2.5,2.6H54.5z M62.5,88.9C62.4,88.9,62.4,88.9,62.5,88.9l-0.1-0.5c0-0.1,0.1-0.1,0.1-0.1h3.2c0.1,0,0.1,0,0.1,0.1
	v4.3c0,0.1,0,0.1-0.1,0.1c-0.9,0.5-2,0.7-3.1,0.7c-3.5,0-5.1-2.5-5.1-5.4c0-3.3,2.1-5.5,5.2-5.5c1.2,0,2.2,0.3,2.7,0.6
	c0,0,0.1,0.1,0.1,0.1V84c0,0.1,0,0.1-0.1,0.1c-0.7-0.4-1.7-0.7-2.7-0.7c-2.8,0-4.5,1.9-4.5,4.8c0,2.2,1.2,4.7,4.4,4.7
	c1.1,0,1.9-0.2,2.4-0.5v-3.5H62.5z M70.1,93.5c-1.6,0-2.9-0.8-2.9-2.4c0-1.9,1.6-2.6,4.7-2.5v-0.4c0-0.6-0.2-1.9-1.9-1.9
	c-0.7,0-1.5,0.2-2.1,0.6c-0.1,0-0.1,0-0.1-0.1v-0.5c0-0.1,0-0.1,0.1-0.1c0.6-0.4,1.4-0.6,2.2-0.6c1.8,0,2.5,1.2,2.5,2.7v3.9
	c0,0.2,0,0.4,0,0.5c0,0,0,0,0,0.1C71.7,93.4,70.8,93.5,70.1,93.5z M72,89.2c-3.1-0.1-4.1,0.6-4.1,1.9c0,0.9,0.6,1.7,2.3,1.7
	c0.6,0,1.2-0.1,1.7-0.3V89.2L72,89.2z M80.9,89.3c0,2.9-2.3,4.2-4.3,4.2c-0.5,0-0.9-0.1-1.3-0.1V97c0,0.1,0,0.1-0.1,0.1l-0.5,0.1
	c-0.1,0-0.1,0-0.1-0.1V86.8c0-0.1,0-0.2,0-0.4c0,0,0-0.1,0-0.1c0.4-0.1,1.5-0.6,2.8-0.6C79.5,85.6,80.9,87.1,80.9,89.3L80.9,89.3z
	 M75.4,86.6v6.1c0.3,0.1,0.7,0.2,1.3,0.2c1.9,0,3.5-1.4,3.5-3.6c0-1.7-1.1-3-2.8-3C76.5,86.3,75.9,86.4,75.4,86.6z"/>
</svg>
