<?xml version="1.0" encoding="utf-8"?>
<!-- Generator: Adobe Illustrator 21.1.0, SVG Export Plug-In . SVG Version: 6.00 Build 0)  -->
<svg version="1.1" id="Layer_1" xmlns="http://www.w3.org/2000/svg" xmlns:xlink="http://www.w3.org/1999/xlink" x="0px" y="0px"
	 viewBox="0 0 100 100" style="enable-background:new 0 0 100 100;" xml:space="preserve">
<style type="text/css">
	.st0{fill:#288ACA;}
</style>
<g>
	<path class="st0" d="M74.7,43h-4.3l-1.7,10h4c3-0.3,5.7-1.3,6-7C78.7,44,77,43,74.7,43L74.7,43z"/>
	<path class="st0" d="M50,24.7C23.1,24.7,1.3,36,1.3,50c0,14,21.8,25.3,48.7,25.3C76.9,75.3,98.7,64,98.7,50
		C98.7,36,76.9,24.7,50,24.7z M28.7,58h-6l-1.3,7H15l5.3-27h12.3c5.3,0.3,8,3,8,7.7C40.7,53.7,34.3,58.3,28.7,58z M52.7,58L55,45.7
		c0.3-1.7,0.3-2.7-2-2.7h-5l-3,15h-6.3L44,31h6.3L49,38h6c5.3,0.3,7.3,3,6.7,6.3L59.3,58H52.7L52.7,58z M73.3,58h-6L66,65h-6.3
		L65,38h12.3c5.3,0.3,8,3,8,7.7C85.3,53.7,79,58.3,73.3,58z"/>
	<path class="st0" d="M30,43h-4.3L24,53h4c3-0.3,5.7-1.3,6-7C34,44,32.3,43,30,43L30,43z"/>
</g>
</svg>
