<?xml version="1.0" encoding="utf-8"?>
<!-- Generator: Adobe Illustrator 21.1.0, SVG Export Plug-In . SVG Version: 6.00 Build 0)  -->
<svg version="1.1" id="Layer_1" xmlns="http://www.w3.org/2000/svg" xmlns:xlink="http://www.w3.org/1999/xlink" x="0px" y="0px"
	 viewBox="0 0 100 100" style="enable-background:new 0 0 100 100;" xml:space="preserve">
<style type="text/css">
	.st0{fill:#CE6899;}
</style>
<path class="st0" d="M83.7,55.2c-3.3,0-6.1,0.8-8.5,2c-0.9-1.7-1.7-3.3-1.9-4.4c-0.2-1.3-0.4-2.1-0.2-3.7c0.2-1.6,1.1-3.8,1.1-4
	s-0.2-1-2.1-1c-1.9,0-3.5,0.4-3.7,0.9c-0.2,0.5-0.5,1.6-0.8,2.8c-0.3,1.7-3.8,7.8-5.7,11c-0.6-1.2-1.2-2.3-1.3-3.2
	c-0.2-1.3-0.4-2.1-0.2-3.7c0.2-1.6,1.1-3.8,1.1-4c0-0.2-0.2-1-2.1-1c-1.9,0-3.5,0.4-3.7,0.9c-0.2,0.5-0.4,1.7-0.8,2.8
	c-0.4,1.1-4.9,11.3-6.1,13.9c-0.6,1.3-1.1,2.4-1.5,3.2l0,0c0,0,0,0.1-0.1,0.1c-0.3,0.6-0.5,1-0.5,1s0,0,0,0
	c-0.3,0.5-0.5,0.9-0.7,0.9c-0.1,0-0.3-1.2,0-2.9c0.7-3.5,2.3-9,2.3-9.2c0-0.1,0.3-1.1-1.1-1.6c-1.3-0.5-1.8,0.3-1.9,0.3
	s-0.2,0.3-0.2,0.3s1.5-6.2-2.8-6.2c-2.7,0-6.4,2.9-8.3,5.6c-1.2,0.6-3.6,2-6.3,3.4c-1,0.6-2,1.1-3,1.7c-0.1-0.1-0.1-0.2-0.2-0.2
	c-5.2-5.6-14.9-9.5-14.5-17c0.2-2.7,1.1-9.9,18.5-18.6c14.4-7.1,25.8-5.1,27.8-0.8c2.8,6.2-6.1,17.7-21,19.4
	c-5.7,0.6-8.6-1.6-9.4-2.4c-0.8-0.9-0.9-0.9-1.2-0.7c-0.5,0.3-0.2,1,0,1.5c0.4,1.2,2.3,3.2,5.4,4.2c2.7,0.9,9.4,1.4,17.4-1.7
	c9-3.5,16-13.1,13.9-21.2c-2.1-8.2-15.7-10.9-28.6-6.3c-7.7,2.7-16,7-22,12.6C4.1,36.5,3,42.3,3.4,44.7C5.1,53.3,16.9,58.9,21.7,63
	c-0.2,0.1-0.5,0.3-0.6,0.4c-2.4,1.2-11.4,5.9-13.7,10.9C4.8,79.9,7.8,84,9.7,84.5c6.1,1.7,12.3-1.3,15.7-6.4
	c3.4-5,2.9-11.5,1.4-14.5c0,0,0-0.1-0.1-0.1c0.6-0.4,1.2-0.7,1.9-1.1c1.2-0.7,2.4-1.4,3.4-1.9c-0.6,1.6-1,3.5-1.2,6.2
	c-0.3,3.2,1.1,7.4,2.8,9c0.8,0.7,1.7,0.7,2.3,0.7c2,0,2.9-1.7,3.9-3.6c1.2-2.4,2.3-5.2,2.3-5.2s-1.4,7.6,2.4,7.6
	c1.4,0,2.7-1.8,3.4-2.7c0,0,0,0,0,0s0-0.1,0.1-0.2c0.1-0.2,0.2-0.4,0.2-0.4s0,0,0,0c0.5-1,1.8-3.1,3.6-6.7
	c2.4-4.6,4.6-10.4,4.6-10.4s0.2,1.4,0.9,3.8c0.4,1.4,1.3,2.9,1.9,4.4c-0.5,0.8-0.9,1.2-0.9,1.2s0,0,0,0c-0.4,0.6-0.9,1.2-1.4,1.8
	c-1.9,2.2-4.1,4.8-4.4,5.5c-0.4,0.9-0.3,1.5,0.4,2c0.5,0.4,1.4,0.4,2.3,0.4c1.7-0.1,2.8-0.5,3.4-0.8c0.9-0.3,2-0.8,2.9-1.6
	c1.8-1.3,2.9-3.3,2.8-5.8c-0.1-1.4-0.5-2.8-1.1-4.1c0.2-0.2,0.3-0.5,0.5-0.7c2.9-4.2,5.1-8.8,5.1-8.8s0.2,1.4,0.9,3.8
	c0.3,1.2,1,2.5,1.7,3.8c-2.7,2.2-4.4,4.8-5,6.4c-1.1,3.1-0.2,4.5,1.3,4.8c0.7,0.2,1.7-0.2,2.5-0.5c1-0.3,2.1-0.8,3.2-1.6
	c1.8-1.3,3.6-3.2,3.5-5.8c-0.1-1.2-0.4-2.3-0.8-3.4c2.3-1,5.3-1.5,9.1-1c8.1,1,9.7,6,9.4,8.1c-0.3,2.1-2,3.3-2.6,3.6
	c-0.6,0.4-0.8,0.5-0.7,0.7c0.1,0.4,0.3,0.4,0.8,0.3c0.7-0.1,4.3-1.7,4.4-5.6C96.9,60.7,92.1,55.2,83.7,55.2z M21.1,76.3
	c-2.7,2.9-6.4,4-8.1,3.1c-1.7-1-1.1-5.3,2.3-8.4c2-1.9,4.6-3.6,6.3-4.7c0.4-0.2,1-0.6,1.7-1c0.1-0.1,0.2-0.1,0.2-0.1l0,0
	c0.1-0.1,0.3-0.2,0.4-0.3C25.1,69.4,23.9,73.3,21.1,76.3z M40.7,63c-0.9,2.3-2.9,8.1-4.1,7.8c-1-0.3-1.7-4.7-0.2-9.1
	c0.7-2.2,2.3-4.8,3.2-5.8c1.5-1.6,3.1-2.2,3.5-1.5C43.6,55.2,41.3,61.6,40.7,63z M56.9,70.8c-0.4,0.2-0.8,0.3-0.9,0.2
	c-0.1-0.1,0.2-0.3,0.2-0.3s2-2.2,2.8-3.2c0.5-0.6,1-1.3,1.6-2c0,0.1,0,0.2,0,0.2C60.5,68.3,58,70,56.9,70.8z M69.4,67.9
	c-0.3-0.2-0.2-0.9,0.7-3c0.4-0.8,1.3-2.2,2.8-3.6c0.2,0.5,0.3,1.1,0.3,1.6C73.1,66.2,70.8,67.4,69.4,67.9z"/>
</svg>
