<?xml version="1.0" encoding="utf-8"?>
<!-- Generator: Adobe Illustrator 21.1.0, SVG Export Plug-In . SVG Version: 6.00 Build 0)  -->
<svg version="1.1" id="Layer_1" xmlns="http://www.w3.org/2000/svg" xmlns:xlink="http://www.w3.org/1999/xlink" x="0px" y="0px"
	 viewBox="0 0 100 100" style="enable-background:new 0 0 100 100;" xml:space="preserve">
<path d="M70.6,58.5c-0.1,0-0.1,0-0.1,0c-0.7,0-1.4,0-2.1,0c-0.1,0-0.3,0-0.4-0.1c-0.2-0.1-0.4-0.3-0.4-0.5c-0.1-0.2-0.1-0.4-0.2-0.7
	c-0.1,0-0.1,0.1-0.1,0.1c-0.4,0.3-0.7,0.6-1.2,0.8c-0.8,0.4-1.6,0.6-2.5,0.5c-0.6,0-1.1-0.2-1.6-0.4c-0.9-0.5-1.5-1.2-1.8-2.2
	c-0.2-0.6-0.3-1.3-0.3-2c0-1.6,0-3.3,0-4.9c0-0.1,0-0.1,0-0.2c-1.7,0-3.5,0-5.2,0c0,0,0,0.1,0,0.1c0,1.9,0,3.8,0,5.8
	c0,0.2,0,0.4,0.1,0.6c0.1,0.3,0.3,0.4,0.6,0.4c0.2,0,0.4,0,0.6-0.2c0.1-0.1,0.2-0.1,0.4-0.1c0.1,0,0.2,0,0.3,0.1
	c0,0.1,0.1,0.1,0.1,0.2c0.3,0.5,0.7,1.1,1,1.6c0,0,0,0.1,0,0.1c0,0-0.1,0.1-0.1,0.1c-0.6,0.5-1.4,0.7-2.1,0.8
	c-0.5,0.1-1,0.1-1.6,0.1c-0.7-0.1-1.4-0.3-2-0.8c-0.5-0.4-0.8-1-0.9-1.6c-0.1-0.3-0.1-0.7-0.1-1c0-2,0-4,0-6c0-0.1,0-0.1,0-0.2
	c-0.1,0-0.1,0-0.2,0c-0.3,0-0.6,0-0.8,0c-0.4,0-0.7-0.3-0.7-0.7c0-0.4,0-0.8,0-1.3c0,0,0-0.1,0-0.1c0.3-0.1,0.6-0.1,0.8-0.2
	c0.3-0.1,0.6-0.1,0.9-0.2c0.1,0,0.1-0.1,0.2-0.2c0.2-0.7,0.3-1.4,0.5-2.2c0-0.2,0.1-0.4,0.1-0.6c0.1-0.4,0.3-0.6,0.8-0.6
	c0.3,0,0.5,0,0.8,0c0.3,0,0.7,0,1,0c0,0,0.1,0,0.1,0c0,0.3,0,0.6,0,0.9c0,0.3,0,0.6,0,0.9c0,0.3,0,0.6,0,0.9c0,0.3,0,0.6,0,0.9
	c0.1,0,0.1,0,0.2,0c0.9,0,1.8,0,2.7,0c1.9,0,3.8,0,5.7,0c0.1,0,0.1,0,0.2,0c0,0.1,0,0.2,0,0.2c0,2.5,0,4.9,0,7.4
	c0,0.2,0,0.5,0.1,0.7c0.2,0.7,0.7,1.1,1.4,1.1c0.4,0,0.8-0.1,1.2-0.2c0.3-0.2,0.6-0.4,0.9-0.6c0.1,0,0.1-0.1,0.1-0.2
	c0,0,0-0.1,0-0.1c0-2.7,0-5.4,0-8.1c0-0.1,0-0.1,0-0.2c0.1,0,3.4,0,3.6,0C70.6,50.6,70.6,54.5,70.6,58.5z"/>
<path d="M16.9,58.5c-0.1,0-0.1,0-0.2,0c-0.9,0-1.8,0-2.7,0c-0.4,0-0.6-0.1-0.7-0.5c-0.1-0.3-0.2-0.5-0.2-0.8c-0.6-2-1.1-3.9-1.7-5.9
	c-0.1-0.3-0.1-0.6-0.2-0.8c0,0,0-0.1-0.1-0.1c0,0.1,0,0.1,0,0.2c-0.1,0.7-0.4,1.4-0.6,2c-0.5,1.7-1,3.4-1.5,5.2C9,58,9,58,9,58.1
	c-0.1,0.3-0.4,0.4-0.7,0.4c-0.9,0-1.8,0-2.8,0c0,0,0,0-0.1,0c-1.2-4-2.5-8-3.7-12c0.1,0,0.1,0,0.1,0c0.9,0,1.8,0,2.7,0
	c0.2,0,0.5,0,0.7,0.2c0.2,0.1,0.3,0.3,0.3,0.5c0.4,2,0.9,4,1.3,6c0.1,0.5,0.2,1,0.3,1.6c0-0.1,0-0.1,0.1-0.2C8,52.8,8.4,51,9,49.1
	c0.2-0.6,0.3-1.2,0.5-1.8c0.1-0.5,0.5-0.7,1-0.8c0.4,0,0.9,0,1.3,0c0.2,0,0.4,0,0.6,0c0.2,0,0.3,0.1,0.5,0.2
	c0.1,0.1,0.2,0.3,0.3,0.4c0.4,1.5,0.8,3.1,1.2,4.6c0.3,1,0.5,1.9,0.8,2.9c0,0,0,0,0.1,0.1c0-0.1,0-0.2,0.1-0.3
	c0.2-0.9,0.4-1.8,0.6-2.8c0.3-1.5,0.7-3,1.1-4.5c0.1-0.4,0.4-0.7,0.8-0.7c0.1,0,0.1,0,0.2,0c0.8,0,1.7,0,2.5,0c0,0,0.1,0,0.2,0
	C19.3,50.6,18.1,54.6,16.9,58.5z"/>
<path d="M80.9,41.3c1.2,0,2.4,0,3.5,0c0,0.1,0,17.1,0,17.3c0,0-0.1,0-0.1,0c-0.7,0-1.4,0-2.1,0c-0.1,0-0.2,0-0.3,0
	c-0.3-0.1-0.5-0.2-0.6-0.5c-0.1-0.3-0.2-0.5-0.2-0.8c0,0,0-0.1,0-0.1c-0.1,0.1-0.1,0.1-0.2,0.2c-0.4,0.4-0.9,0.8-1.5,1.1
	c-0.9,0.4-1.8,0.5-2.7,0.4c-1-0.2-1.8-0.8-2.4-1.6c-0.5-0.6-0.8-1.4-0.9-2.1c-0.2-1-0.3-2-0.2-3c0.1-0.9,0.3-1.8,0.7-2.7
	c0.5-1,1.2-1.9,2.3-2.4c0.8-0.4,1.6-0.5,2.5-0.5c0.9,0,1.6,0.4,2.3,0.9c0,0,0,0,0.1,0c0,0,0,0,0,0c0,0,0,0,0,0c0,0,0,0,0,0
	c0,0,0,0,0,0c0,0,0,0,0,0C80.9,45.2,80.9,43.3,80.9,41.3C80.9,41.3,80.9,41.3,80.9,41.3C80.9,41.3,80.9,41.3,80.9,41.3
	C80.9,41.3,80.9,41.3,80.9,41.3C80.9,41.3,80.9,41.3,80.9,41.3z M80.9,52.3c0-0.8,0-1.6,0-2.4c0-0.1,0-0.2-0.1-0.2
	c-0.6-0.6-1.3-0.8-2-0.7c-0.6,0.1-1.1,0.4-1.5,0.9c-0.1,0.2-0.2,0.5-0.3,0.7c-0.2,0.5-0.2,1.1-0.2,1.6c0,0.7,0,1.3,0.1,1.9
	c0.1,0.4,0.2,0.8,0.4,1.1c0.2,0.3,0.5,0.5,0.9,0.6c0.5,0.1,1.1,0,1.6-0.2c0.4-0.2,0.7-0.5,1-0.8c0.1-0.1,0.1-0.2,0.1-0.3
	C80.9,53.9,80.9,53.1,80.9,52.3z"/>
<path d="M33,50.9c0.3,0,0.5,0,0.8,0c0.2,0,0.4-0.2,0.6-0.4c0.2-0.2,0.3-0.5,0.5-0.7c0.6-0.9,1.2-1.8,1.8-2.7
	c0.3-0.4,0.6-0.6,1.1-0.6c0.1,0,0.1,0,0.2,0c1,0,2,0,3,0c0.1,0,0.1,0,0.2,0c0,0.1-0.1,0.1-0.1,0.2c-1,1.3-2,2.7-2.9,4
	c-0.3,0.4-0.6,0.7-1,0.9c0,0-0.1,0-0.1,0.1c0,0,0,0,0,0c0,0,0,0,0.1,0c0.3,0.3,0.6,0.6,0.8,0.9c1.1,1.9,2.2,3.8,3.3,5.6
	c0,0,0,0.1,0.1,0.1c0,0-0.1,0-0.1,0c-1.1,0-2.1,0-3.2,0c-0.1,0-0.2,0-0.3,0c-0.4-0.1-0.6-0.3-0.8-0.6c-0.3-0.5-0.5-1-0.8-1.5
	c-0.5-0.9-0.9-1.8-1.4-2.7c-0.1-0.1-0.1-0.2-0.2-0.3c-0.1-0.1-0.2-0.2-0.4-0.2c-0.3-0.1-0.7,0-1.1,0c0,1.8,0,3.5,0,5.3
	c-1.2,0-2.4,0-3.6,0c0-5.8,0-11.5,0-17.3c0.1,0,3.3,0,3.6,0c0,0.4,0,0.8,0,1.2c0,0.4,0,0.8,0,1.2c0,0.4,0,0.8,0,1.2
	c0,0.4,0,0.8,0,1.2s0,0.8,0,1.2s0,0.8,0,1.2c0,0.4,0,0.8,0,1.2C33,50.1,33,50.5,33,50.9z"/>
<path d="M90.5,53.2c0,0.1,0,0.2,0,0.3c0.1,0.4,0.2,0.8,0.4,1.2c0.4,0.7,1,1.1,1.8,1.3c0.9,0.1,1.7,0,2.4-0.4
	c0.2-0.1,0.5-0.2,0.7-0.4c0.2-0.1,0.5-0.2,0.7-0.1c0.2,0,0.3,0.1,0.5,0.2c0.4,0.5,0.7,0.9,1.1,1.4c-0.1,0.1-0.2,0.2-0.3,0.3
	c-0.7,0.7-1.4,1.1-2.3,1.4c-1.3,0.4-2.7,0.5-4,0.2c-2.2-0.5-3.7-1.9-4.3-4.1c-0.4-1.3-0.4-2.5-0.1-3.8c0.6-2.2,2-3.6,4.2-4.1
	c1.1-0.3,2.2-0.2,3.3,0.1c1.7,0.5,2.8,1.6,3.3,3.3c0.3,0.9,0.3,1.7,0.2,2.6c0,0,0,0.1,0,0.1c-0.1,0.4-0.3,0.5-0.7,0.6
	c-0.1,0-0.1,0-0.2,0c-2.2,0-4.4,0-6.6,0C90.6,53.2,90.6,53.2,90.5,53.2z M95,51.1c0-0.2,0-0.5-0.1-0.7c-0.2-0.8-0.6-1.3-1.4-1.5
	c-0.3-0.1-0.6-0.1-1,0c-0.7,0.1-1.2,0.4-1.6,1c-0.2,0.3-0.3,0.7-0.4,1c0,0.1,0,0.1,0,0.2C92,51.1,93.5,51.1,95,51.1z"/>
<path d="M26.1,58.5c-1.2,0-2.4,0-3.5,0c0-0.1,0-11.7,0-12c1.2,0,2.4,0,3.5,0C26.1,46.7,26.1,58.3,26.1,58.5z"/>
<path d="M46.9,46.6c0,4,0,8,0,12c-1.2,0-2.4,0-3.6,0c0-4,0-8,0-12C44.5,46.6,45.7,46.6,46.9,46.6z"/>
</svg>
